Geologica-ThinItalic.ufo
<glyph name="exclam" format="2">
  <advance width="604"/>
  <unicode hex="0021"/>
  <outline>
    <contour>
      <point x="244" y="440" type="line"/>
      <point x="344" y="440" type="line"/>
      <point x="568" y="1400" type="line"/>
      <point x="428" y="1400" type="line"/>
    </contour>
    <contour>
      <point x="204" y="-30" type="curve" smooth="yes"/>
      <point x="270" y="-30"/>
      <point x="328" y="18"/>
      <point x="328" y="86" type="curve" smooth="yes"/>
      <point x="328" y="138"/>
      <point x="286" y="178"/>
      <point x="228" y="178" type="curve" smooth="yes"/>
      <point x="162" y="178"/>
      <point x="104" y="130"/>
      <point x="104" y="62" type="curve" smooth="yes"/>
      <point x="104" y="10"/>
      <point x="146" y="-30"/>
    </contour>
  </outline>
</glyph>
<glyph name="numbersign" format="2">
  <advance width="1116"/>
  <unicode hex="0023"/>
  <outline>
    <contour>
      <point x="170" y="58" type="line"/>
      <point x="270" y="58" type="line"/>
      <point x="360" y="418" type="line"/>
      <point x="722" y="418" type="line"/>
      <point x="632" y="56" type="line"/>
      <point x="732" y="56" type="line"/>
      <point x="822" y="418" type="line"/>
      <point x="998" y="418" type="line"/>
      <point x="1022" y="518" type="line"/>
      <point x="846" y="518" type="line"/>
      <point x="928" y="882" type="line"/>
      <point x="1106" y="882" type="line"/>
      <point x="1128" y="982" type="line"/>
      <point x="952" y="982" type="line"/>
      <point x="1040" y="1344" type="line"/>
      <point x="940" y="1344" type="line"/>
      <point x="852" y="982" type="line"/>
      <point x="490" y="982" type="line"/>
      <point x="578" y="1342" type="line"/>
      <point x="480" y="1342" type="line"/>
      <point x="390" y="982" type="line"/>
      <point x="214" y="982" type="line"/>
      <point x="190" y="884" type="line"/>
      <point x="368" y="884" type="line"/>
      <point x="282" y="516" type="line"/>
      <point x="104" y="516" type="line"/>
      <point x="82" y="418" type="line"/>
      <point x="260" y="418" type="line"/>
    </contour>
    <contour>
      <point x="382" y="516" type="line"/>
      <point x="464" y="884" type="line"/>
      <point x="828" y="882" type="line"/>
      <point x="746" y="518" type="line"/>
    </contour>
  </outline>
</glyph>
<glyph name="ampersand" format="2">
  <advance width="1454"/>
  <unicode hex="0026"/>
  <outline>
    <contour>
      <point x="508" y="-26" type="curve" smooth="yes"/>
      <point x="672" y="-26"/>
      <point x="838" y="42"/>
      <point x="988" y="174" type="curve"/>
      <point x="1116" y="0" type="line"/>
      <point x="1258" y="0" type="line"/>
      <point x="1072" y="254" type="line"/>
      <point x="1196" y="386"/>
      <point x="1312" y="552"/>
      <point x="1400" y="732" type="curve"/>
      <point x="1304" y="780" type="line"/>
      <point x="1210" y="582"/>
      <point x="1116" y="438"/>
      <point x="1016" y="334" type="curve"/>
      <point x="714" y="744" type="line"/>
      <point x="990" y="828"/>
      <point x="1136" y="956"/>
      <point x="1136" y="1142" type="curve" smooth="yes"/>
      <point x="1136" y="1310"/>
      <point x="1008" y="1430"/>
      <point x="810" y="1430" type="curve" smooth="yes"/>
      <point x="610" y="1430"/>
      <point x="420" y="1278"/>
      <point x="420" y="1066" type="curve" smooth="yes"/>
      <point x="420" y="974"/>
      <point x="452" y="900"/>
      <point x="538" y="790" type="curve"/>
      <point x="290" y="726"/>
      <point x="94" y="554"/>
      <point x="94" y="318" type="curve" smooth="yes"/>
      <point x="94" y="106"/>
      <point x="258" y="-26"/>
    </contour>
    <contour>
      <point x="524" y="80" type="curve" smooth="yes"/>
      <point x="330" y="80"/>
      <point x="214" y="178"/>
      <point x="214" y="326" type="curve" smooth="yes"/>
      <point x="214" y="510"/>
      <point x="352" y="654"/>
      <point x="596" y="714" type="curve"/>
      <point x="930" y="256" type="line"/>
      <point x="804" y="136"/>
      <point x="668" y="80"/>
    </contour>
    <contour>
      <point x="654" y="816" type="curve"/>
      <point x="572" y="928"/>
      <point x="542" y="996"/>
      <point x="542" y="1074" type="curve" smooth="yes"/>
      <point x="542" y="1218"/>
      <point x="654" y="1322"/>
      <point x="798" y="1322" type="curve" smooth="yes"/>
      <point x="926" y="1322"/>
      <point x="1014" y="1240"/>
      <point x="1014" y="1128" type="curve" smooth="yes"/>
      <point x="1014" y="984"/>
      <point x="898" y="880"/>
    </contour>
  </outline>
</glyph>
<glyph name="parenleft" format="2">
  <advance width="686"/>
  <unicode hex="0028"/>
  <outline>
    <contour>
      <point x="304" y="-230" type="curve"/>
      <point x="390" y="-190" type="line"/>
      <point x="334" y="-38"/>
      <point x="304" y="132"/>
      <point x="304" y="312" type="curve" smooth="yes"/>
      <point x="304" y="748"/>
      <point x="470" y="1252"/>
      <point x="774" y="1564" type="curve"/>
      <point x="694" y="1610" type="line"/>
      <point x="384" y="1272"/>
      <point x="204" y="790"/>
      <point x="204" y="328" type="curve" smooth="yes"/>
      <point x="204" y="132"/>
      <point x="236" y="-58"/>
    </contour>
  </outline>
</glyph>
<glyph name="plus" format="2">
  <advance width="1296"/>
  <unicode hex="002B"/>
  <outline>
    <contour>
      <point x="543" y="220" type="line"/>
      <point x="643" y="220" type="line"/>
      <point x="727" y="616" type="line"/>
      <point x="1145" y="616" type="line"/>
      <point x="1165" y="712" type="line"/>
      <point x="747" y="712" type="line"/>
      <point x="831" y="1108" type="line"/>
      <point x="731" y="1108" type="line"/>
      <point x="647" y="712" type="line"/>
      <point x="229" y="712" type="line"/>
      <point x="209" y="616" type="line"/>
      <point x="627" y="616" type="line"/>
    </contour>
  </outline>
</glyph>
<glyph name="hyphen" format="2">
  <advance width="766"/>
  <unicode hex="002D"/>
  <outline>
    <contour>
      <point x="144" y="512" type="line"/>
      <point x="636" y="512" type="line"/>
      <point x="656" y="608" type="line"/>
      <point x="164" y="608" type="line"/>
    </contour>
  </outline>
</glyph>
<glyph name="slash" format="2">
  <advance width="882"/>
  <unicode hex="002F"/>
  <outline>
    <contour>
      <point x="-28" y="-230" type="line"/>
      <point x="1092" y="1554" type="line"/>
      <point x="1004" y="1610" type="line"/>
      <point x="-118" y="-178" type="line"/>
    </contour>
  </outline>
</glyph>
<glyph name="one" format="2">
  <advance width="832"/>
  <unicode hex="0031"/>
  <outline>
    <contour>
      <point x="378" y="0" type="line"/>
      <point x="490" y="0" type="line"/>
      <point x="794" y="1430" type="line"/>
      <point x="784" y="1430" type="line"/>
      <point x="182" y="1220" type="line"/>
      <point x="212" y="1134" type="line"/>
      <point x="650" y="1284" type="line"/>
    </contour>
  </outline>
</glyph>
<glyph name="four" format="2">
  <advance width="1202"/>
  <unicode hex="0034"/>
  <outline>
    <contour>
      <point x="672" y="0" type="line"/>
      <point x="784" y="0" type="line"/>
      <point x="850" y="312" type="line"/>
      <point x="1092" y="312" type="line"/>
      <point x="1114" y="420" type="line"/>
      <point x="872" y="420" type="line"/>
      <point x="946" y="768" type="line"/>
      <point x="834" y="768" type="line"/>
      <point x="760" y="420" type="line"/>
      <point x="166" y="420" type="line"/>
      <point x="936" y="1400" type="line"/>
      <point x="800" y="1400" type="line"/>
      <point x="30" y="414" type="line"/>
      <point x="10" y="312" type="line"/>
      <point x="738" y="312" type="line"/>
    </contour>
  </outline>
</glyph>
<glyph name="six" format="2">
  <advance width="1268"/>
  <unicode hex="0036"/>
  <outline>
    <contour>
      <point x="622" y="-30" type="curve" smooth="yes"/>
      <point x="916" y="-30"/>
      <point x="1168" y="202"/>
      <point x="1168" y="482" type="curve" smooth="yes"/>
      <point x="1168" y="712"/>
      <point x="978" y="880"/>
      <point x="712" y="880" type="curve" smooth="yes"/>
      <point x="552" y="880"/>
      <point x="412" y="814"/>
      <point x="308" y="696" type="curve"/>
      <point x="420" y="1002"/>
      <point x="724" y="1278"/>
      <point x="1216" y="1330" type="curve"/>
      <point x="1194" y="1430" type="line"/>
      <point x="632" y="1366"/>
      <point x="136" y="974"/>
      <point x="136" y="440" type="curve" smooth="yes"/>
      <point x="136" y="144"/>
      <point x="330" y="-30"/>
    </contour>
    <contour>
      <point x="632" y="84" type="curve" smooth="yes"/>
      <point x="406" y="84"/>
      <point x="264" y="214"/>
      <point x="264" y="394" type="curve" smooth="yes"/>
      <point x="264" y="614"/>
      <point x="454" y="778"/>
      <point x="678" y="778" type="curve" smooth="yes"/>
      <point x="890" y="778"/>
      <point x="1040" y="638"/>
      <point x="1040" y="458" type="curve" smooth="yes"/>
      <point x="1040" y="252"/>
      <point x="862" y="84"/>
    </contour>
  </outline>
</glyph>
<glyph name="nine" format="2">
  <advance width="1248"/>
  <unicode hex="0039"/>
  <outline>
    <contour>
      <point x="159" y="-30" type="line"/>
      <point x="716" y="35"/>
      <point x="1207" y="432"/>
      <point x="1207" y="972" type="curve" smooth="yes"/>
      <point x="1207" y="1261"/>
      <point x="1013" y="1430"/>
      <point x="721" y="1430" type="curve" smooth="yes"/>
      <point x="433" y="1430"/>
      <point x="199" y="1216"/>
      <point x="199" y="942" type="curve" smooth="yes"/>
      <point x="199" y="712"/>
      <point x="388" y="544"/>
      <point x="643" y="544" type="curve" smooth="yes"/>
      <point x="808" y="544"/>
      <point x="937" y="610"/>
      <point x="1035" y="728" type="curve"/>
      <point x="924" y="410"/>
      <point x="624" y="124"/>
      <point x="137" y="70" type="curve"/>
    </contour>
    <contour>
      <point x="677" y="646" type="curve" smooth="yes"/>
      <point x="472" y="646"/>
      <point x="327" y="769"/>
      <point x="327" y="954" type="curve" smooth="yes"/>
      <point x="327" y="1153"/>
      <point x="500" y="1316"/>
      <point x="723" y="1316" type="curve" smooth="yes"/>
      <point x="942" y="1316"/>
      <point x="1079" y="1191"/>
      <point x="1079" y="1018" type="curve" smooth="yes"/>
      <point x="1079" y="805"/>
      <point x="895" y="646"/>
    </contour>
  </outline>
</glyph>
<glyph name="less" format="2">
  <advance width="1296"/>
  <unicode hex="003C"/>
  <outline>
    <contour>
      <point x="1047" y="250" type="line"/>
      <point x="1091" y="350" type="line"/>
      <point x="373" y="660" type="line"/>
      <point x="1243" y="980" type="line"/>
      <point x="1205" y="1084" type="line"/>
      <point x="229" y="712" type="line"/>
      <point x="211" y="620" type="line"/>
    </contour>
  </outline>
</glyph>
<glyph name="F" format="2">
  <advance width="1134"/>
  <unicode hex="0046"/>
  <outline>
    <contour>
      <point x="100" y="0" type="line"/>
      <point x="216" y="0" type="line"/>
      <point x="358" y="668" type="line"/>
      <point x="990" y="668" type="line"/>
      <point x="1012" y="776" type="line"/>
      <point x="380" y="776" type="line"/>
      <point x="490" y="1292" type="line"/>
      <point x="1182" y="1292" type="line"/>
      <point x="1204" y="1400" type="line"/>
      <point x="396" y="1400" type="line"/>
    </contour>
  </outline>
</glyph>
<glyph name="H" format="2">
  <advance width="1438"/>
  <unicode hex="0048"/>
  <anchor x="914" y="1400" name="top"/>
  <anchor x="316" y="1400" name="topleft"/>
  <outline>
    <contour>
      <point x="100" y="0" type="line"/>
      <point x="216" y="0" type="line"/>
      <point x="364" y="698" type="line"/>
      <point x="1168" y="698" type="line"/>
      <point x="1020" y="0" type="line"/>
      <point x="1136" y="0" type="line"/>
      <point x="1432" y="1400" type="line"/>
      <point x="1316" y="1400" type="line"/>
      <point x="1190" y="806" type="line"/>
      <point x="386" y="806" type="line"/>
      <point x="512" y="1400" type="line"/>
      <point x="396" y="1400" type="line"/>
    </contour>
  </outline>
</glyph>
<glyph name="N" format="2">
  <advance width="1454"/>
  <unicode hex="004E"/>
  <anchor x="626" y="0" name="bottom"/>
  <anchor x="922" y="1400" name="top"/>
  <outline>
    <contour>
      <point x="100" y="0" type="line"/>
      <point x="216" y="0" type="line"/>
      <point x="470" y="1198" type="line"/>
      <point x="1050" y="0" type="line"/>
      <point x="1152" y="0" type="line"/>
      <point x="1448" y="1400" type="line"/>
      <point x="1332" y="1400" type="line"/>
      <point x="1080" y="212" type="line"/>
      <point x="500" y="1400" type="line"/>
      <point x="396" y="1400" type="line"/>
    </contour>
  </outline>
</glyph>
<glyph name="V" format="2">
  <advance width="1254"/>
  <unicode hex="0056"/>
  <outline>
    <contour>
      <point x="482" y="0" type="line"/>
      <point x="582" y="0" type="line"/>
      <point x="1420" y="1400" type="line"/>
      <point x="1290" y="1400" type="line"/>
      <point x="568" y="176" type="line"/>
      <point x="352" y="1400" type="line"/>
      <point x="226" y="1400" type="line"/>
    </contour>
  </outline>
</glyph>
<glyph name="backslash" format="2">
  <advance width="906"/>
  <unicode hex="005C"/>
  <outline>
    <contour>
      <point x="634" y="-230" type="line"/>
      <point x="742" y="-208" type="line"/>
      <point x="366" y="1610" type="line"/>
      <point x="258" y="1588" type="line"/>
    </contour>
  </outline>
</glyph>
<glyph name="bracketright" format="2">
  <advance width="688"/>
  <unicode hex="005D"/>
  <outline>
    <contour>
      <point x="314" y="-220" type="line"/>
      <point x="700" y="1600" type="line"/>
      <point x="392" y="1600" type="line"/>
      <point x="370" y="1504" type="line"/>
      <point x="578" y="1504" type="line"/>
      <point x="234" y="-124" type="line"/>
      <point x="26" y="-124" type="line"/>
      <point x="6" y="-220" type="line"/>
    </contour>
  </outline>
</glyph>
<glyph name="f" format="2">
  <advance width="714"/>
  <unicode hex="0066"/>
  <outline>
    <contour>
      <point x="178" y="0" type="line"/>
      <point x="288" y="0" type="line"/>
      <point x="470" y="856" type="line"/>
      <point x="740" y="856" type="line"/>
      <point x="762" y="960" type="line"/>
      <point x="492" y="960" type="line"/>
      <point x="540" y="1190" type="line" smooth="yes"/>
      <point x="568" y="1318"/>
      <point x="636" y="1362"/>
      <point x="716" y="1362" type="curve" smooth="yes"/>
      <point x="756" y="1362"/>
      <point x="800" y="1354"/>
      <point x="842" y="1332" type="curve"/>
      <point x="892" y="1424" type="line"/>
      <point x="862" y="1448"/>
      <point x="814" y="1470"/>
      <point x="736" y="1470" type="curve" smooth="yes"/>
      <point x="582" y="1470"/>
      <point x="470" y="1374"/>
      <point x="432" y="1192" type="curve" smooth="yes"/>
    </contour>
    <contour>
      <point x="140" y="856" type="line"/>
      <point x="386" y="856" type="line"/>
      <point x="406" y="960" type="line"/>
      <point x="160" y="960" type="line"/>
    </contour>
  </outline>
</glyph>
<glyph name="g" format="2">
  <advance width="1177"/>
  <unicode hex="0067"/>
  <anchor x="631" y="960" name="top"/>
  <outline>
    <contour>
      <point x="441" y="-450" type="curve" smooth="yes"/>
      <point x="699" y="-450"/>
      <point x="939" y="-342"/>
      <point x="939" y="-128" type="curve" smooth="yes"/>
      <point x="939" y="-8"/>
      <point x="829" y="76"/>
      <point x="607" y="114" type="curve" smooth="yes"/>
      <point x="445" y="142" type="line" smooth="yes"/>
      <point x="339" y="160"/>
      <point x="293" y="186"/>
      <point x="293" y="228" type="curve" smooth="yes"/>
      <point x="293" y="306"/>
      <point x="421" y="336"/>
      <point x="543" y="330" type="curve"/>
      <point x="521" y="398" type="line"/>
      <point x="309" y="390"/>
      <point x="169" y="318"/>
      <point x="169" y="202" type="curve" smooth="yes"/>
      <point x="169" y="158"/>
      <point x="199" y="116"/>
      <point x="263" y="78" type="curve"/>
      <point x="99" y="62"/>
      <point x="-41" y="-16"/>
      <point x="-41" y="-158" type="curve" smooth="yes"/>
      <point x="-41" y="-356"/>
      <point x="199" y="-450"/>
    </contour>
    <contour>
      <point x="463" y="-352" type="curve" smooth="yes"/>
      <point x="283" y="-352"/>
      <point x="85" y="-288"/>
      <point x="85" y="-142" type="curve" smooth="yes"/>
      <point x="85" y="-26"/>
      <point x="225" y="38"/>
      <point x="383" y="32" type="curve"/>
      <point x="553" y="2" type="line" smooth="yes"/>
      <point x="723" y="-28"/>
      <point x="811" y="-80"/>
      <point x="811" y="-158" type="curve" smooth="yes"/>
      <point x="811" y="-272"/>
      <point x="679" y="-352"/>
    </contour>
    <contour>
      <point x="569" y="310" type="curve" smooth="yes"/>
      <point x="805" y="310"/>
      <point x="1009" y="476"/>
      <point x="1009" y="670" type="curve" smooth="yes"/>
      <point x="1009" y="850"/>
      <point x="839" y="990"/>
      <point x="615" y="990" type="curve" smooth="yes"/>
      <point x="381" y="990"/>
      <point x="177" y="826"/>
      <point x="177" y="626" type="curve" smooth="yes"/>
      <point x="177" y="446"/>
      <point x="347" y="310"/>
    </contour>
    <contour>
      <point x="581" y="418" type="curve" smooth="yes"/>
      <point x="413" y="418"/>
      <point x="305" y="500"/>
      <point x="305" y="626" type="curve" smooth="yes"/>
      <point x="305" y="762"/>
      <point x="425" y="882"/>
      <point x="605" y="882" type="curve" smooth="yes"/>
      <point x="771" y="882"/>
      <point x="881" y="800"/>
      <point x="881" y="676" type="curve" smooth="yes"/>
      <point x="881" y="538"/>
      <point x="761" y="418"/>
    </contour>
    <contour>
      <point x="797" y="856" type="line"/>
      <point x="1211" y="856" type="line"/>
      <point x="1233" y="960" type="line"/>
      <point x="777" y="950" type="line"/>
    </contour>
  </outline>
</glyph>
<glyph name="k" format="2">
  <advance width="1028"/>
  <unicode hex="006B"/>
  <anchor x="454" y="0" name="bottom"/>
  <outline>
    <contour>
      <point x="68" y="0" type="line"/>
      <point x="180" y="0" type="line"/>
      <point x="256" y="356" type="line"/>
      <point x="482" y="542" type="line"/>
      <point x="732" y="0" type="line"/>
      <point x="866" y="0" type="line"/>
      <point x="578" y="610" type="line"/>
      <point x="996" y="960" type="line"/>
      <point x="850" y="960" type="line"/>
      <point x="288" y="500" type="line"/>
      <point x="488" y="1440" type="line"/>
      <point x="376" y="1440" type="line"/>
    </contour>
  </outline>
</glyph>
<glyph name="m" format="2">
  <advance width="1819"/>
  <unicode hex="006D"/>
  <outline>
    <contour>
      <point x="68" y="0" type="line"/>
      <point x="180" y="0" type="line"/>
      <point x="302" y="570" type="line" smooth="yes"/>
      <point x="344" y="768"/>
      <point x="498" y="882"/>
      <point x="662" y="882" type="curve" smooth="yes"/>
      <point x="840" y="882"/>
      <point x="924" y="778"/>
      <point x="886" y="612" type="curve" smooth="yes"/>
      <point x="756" y="0" type="line"/>
      <point x="868" y="0" type="line"/>
      <point x="990" y="570" type="line" smooth="yes"/>
      <point x="1032" y="768"/>
      <point x="1186" y="882"/>
      <point x="1350" y="882" type="curve" smooth="yes"/>
      <point x="1528" y="882"/>
      <point x="1612" y="778"/>
      <point x="1574" y="612" type="curve" smooth="yes"/>
      <point x="1444" y="0" type="line"/>
      <point x="1556" y="0" type="line"/>
      <point x="1694" y="646" type="line" smooth="yes"/>
      <point x="1732" y="844"/>
      <point x="1608" y="990"/>
      <point x="1390" y="990" type="curve" smooth="yes"/>
      <point x="1256" y="990"/>
      <point x="1122" y="928"/>
      <point x="992" y="772" type="curve"/>
      <point x="984" y="888"/>
      <point x="892" y="990"/>
      <point x="706" y="990" type="curve" smooth="yes"/>
      <point x="572" y="990"/>
      <point x="448" y="920"/>
      <point x="352" y="802" type="curve"/>
      <point x="384" y="960" type="line"/>
      <point x="272" y="960" type="line"/>
    </contour>
  </outline>
</glyph>
<glyph name="n" format="2">
  <advance width="1155"/>
  <unicode hex="006E"/>
  <anchor x="480" y="0" name="bottom"/>
  <anchor x="694" y="960" name="top"/>
  <outline>
    <contour>
      <point x="68" y="0" type="line"/>
      <point x="180" y="0" type="line"/>
      <point x="302" y="570" type="line" smooth="yes"/>
      <point x="344" y="768"/>
      <point x="496" y="882"/>
      <point x="662" y="882" type="curve" smooth="yes"/>
      <point x="836" y="882"/>
      <point x="946" y="774"/>
      <point x="910" y="612" type="curve" smooth="yes"/>
      <point x="780" y="0" type="line"/>
      <point x="892" y="0" type="line"/>
      <point x="1030" y="646" type="line" smooth="yes"/>
      <point x="1072" y="840"/>
      <point x="914" y="990"/>
      <point x="700" y="990" type="curve" smooth="yes"/>
      <point x="584" y="990"/>
      <point x="456" y="940"/>
      <point x="356" y="820" type="curve"/>
      <point x="384" y="960" type="line"/>
      <point x="272" y="960" type="line"/>
    </contour>
  </outline>
</glyph>
<glyph name="r" format="2">
  <advance width="756"/>
  <unicode hex="0072"/>
  <anchor x="124" y="0" name="bottom"/>
  <anchor x="544" y="960" name="top"/>
  <outline>
    <contour>
      <point x="68" y="0" type="line"/>
      <point x="180" y="0" type="line"/>
      <point x="300" y="558" type="line" smooth="yes"/>
      <point x="342" y="756"/>
      <point x="490" y="874"/>
      <point x="666" y="874" type="curve" smooth="yes"/>
      <point x="704" y="874"/>
      <point x="740" y="868"/>
      <point x="778" y="858" type="curve"/>
      <point x="822" y="974" type="line"/>
      <point x="782" y="986"/>
      <point x="738" y="990"/>
      <point x="702" y="990" type="curve" smooth="yes"/>
      <point x="580" y="990"/>
      <point x="464" y="946"/>
      <point x="354" y="808" type="curve"/>
      <point x="386" y="960" type="line"/>
      <point x="272" y="960" type="line"/>
    </contour>
  </outline>
</glyph>
<glyph name="s" format="2">
  <advance width="934"/>
  <unicode hex="0073"/>
  <anchor x="364" y="0" name="bottom"/>
  <anchor x="534" y="960" name="top"/>
  <outline>
    <contour>
      <point x="396" y="-30" type="curve" smooth="yes"/>
      <point x="618" y="-30"/>
      <point x="772" y="96"/>
      <point x="772" y="290" type="curve" smooth="yes"/>
      <point x="772" y="410"/>
      <point x="686" y="480"/>
      <point x="498" y="536" type="curve" smooth="yes"/>
      <point x="340" y="584"/>
      <point x="264" y="624"/>
      <point x="264" y="710" type="curve" smooth="yes"/>
      <point x="264" y="828"/>
      <point x="362" y="896"/>
      <point x="496" y="896" type="curve" smooth="yes"/>
      <point x="616" y="896"/>
      <point x="724" y="846"/>
      <point x="782" y="766" type="curve"/>
      <point x="858" y="860" type="line"/>
      <point x="778" y="949"/>
      <point x="659" y="1000"/>
      <point x="514" y="1000" type="curve" smooth="yes"/>
      <point x="306" y="1000"/>
      <point x="150" y="866"/>
      <point x="150" y="692" type="curve" smooth="yes"/>
      <point x="150" y="572"/>
      <point x="234" y="504"/>
      <point x="426" y="442" type="curve" smooth="yes"/>
      <point x="594" y="386"/>
      <point x="658" y="348"/>
      <point x="658" y="266" type="curve" smooth="yes"/>
      <point x="658" y="144"/>
      <point x="558" y="74"/>
      <point x="404" y="74" type="curve" smooth="yes"/>
      <point x="282" y="74"/>
      <point x="170" y="122"/>
      <point x="102" y="206" type="curve"/>
      <point x="22" y="118" type="line"/>
      <point x="96" y="30"/>
      <point x="242" y="-30"/>
    </contour>
  </outline>
</glyph>
<glyph name="t" format="2">
  <advance width="818"/>
  <unicode hex="0074"/>
  <anchor x="400" y="520" name="bar"/>
  <anchor x="410" y="0" name="bottom"/>
  <anchor x="594" y="1440" name="caron"/>
  <outline>
    <contour>
      <point x="468" y="-30" type="curve" smooth="yes"/>
      <point x="520" y="-30"/>
      <point x="578" y="-20"/>
      <point x="626" y="2" type="curve"/>
      <point x="610" y="104" type="line"/>
      <point x="578" y="90"/>
      <point x="540" y="80"/>
      <point x="493" y="80" type="curve" smooth="yes"/>
      <point x="354" y="80"/>
      <point x="322" y="158"/>
      <point x="354" y="310" type="curve" smooth="yes"/>
      <point x="470" y="856" type="line"/>
      <point x="780" y="856" type="line"/>
      <point x="802" y="960" type="line"/>
      <point x="492" y="960" type="line"/>
      <point x="554" y="1246" type="line"/>
      <point x="442" y="1246" type="line"/>
      <point x="234" y="270" type="line" smooth="yes"/>
      <point x="194" y="76"/>
      <point x="282" y="-30"/>
    </contour>
    <contour>
      <point x="120" y="856" type="line"/>
      <point x="384" y="856" type="line"/>
      <point x="406" y="960" type="line"/>
      <point x="142" y="960" type="line"/>
    </contour>
  </outline>
</glyph>
<glyph name="v" format="2">
  <advance width="962"/>
  <unicode hex="0076"/>
  <outline>
    <contour>
      <point x="316" y="0" type="line"/>
      <point x="440" y="0" type="line"/>
      <point x="1022" y="960" type="line"/>
      <point x="890" y="960" type="line"/>
      <point x="378" y="88" type="line"/>
      <point x="412" y="82" type="line"/>
      <point x="270" y="960" type="line"/>
      <point x="144" y="960" type="line"/>
    </contour>
  </outline>
</glyph>
<glyph name="y" format="2">
  <advance width="956"/>
  <unicode hex="0079"/>
  <anchor x="622" y="0" name="bottom"/>
  <anchor x="576" y="960" name="top"/>
  <outline>
    <contour>
      <point x="50" y="-450" type="curve" smooth="yes"/>
      <point x="172" y="-450"/>
      <point x="264" y="-394"/>
      <point x="372" y="-204" type="curve" smooth="yes"/>
      <point x="1026" y="960" type="line"/>
      <point x="904" y="960" type="line"/>
      <point x="418" y="94" type="line"/>
      <point x="268" y="960" type="line"/>
      <point x="144" y="960" type="line"/>
      <point x="326" y="-58" type="line"/>
      <point x="260" y="-186" type="line" smooth="yes"/>
      <point x="206" y="-288"/>
      <point x="152" y="-342"/>
      <point x="50" y="-342" type="curve" smooth="yes"/>
      <point x="0" y="-342"/>
      <point x="-60" y="-322"/>
      <point x="-100" y="-276" type="curve"/>
      <point x="-150" y="-377" type="line"/>
      <point x="-77" y="-442"/>
      <point x="-16" y="-450"/>
    </contour>
  </outline>
</glyph>
<glyph name="asciitilde" format="2">
  <advance width="1296"/>
  <unicode hex="007E"/>
  <outline>
    <contour>
      <point x="908" y="540" type="curve" smooth="yes"/>
      <point x="996" y="540"/>
      <point x="1094" y="582"/>
      <point x="1186" y="684" type="curve"/>
      <point x="1148" y="764" type="line"/>
      <point x="1074" y="680"/>
      <point x="990" y="636"/>
      <point x="920" y="636" type="curve" smooth="yes"/>
      <point x="794" y="636"/>
      <point x="658" y="784"/>
      <point x="484" y="784" type="curve" smooth="yes"/>
      <point x="390" y="784"/>
      <point x="292" y="738"/>
      <point x="200" y="636" type="curve"/>
      <point x="246" y="568" type="line"/>
      <point x="314" y="642"/>
      <point x="402" y="688"/>
      <point x="472" y="688" type="curve" smooth="yes"/>
      <point x="596" y="688"/>
      <point x="738" y="540"/>
    </contour>
  </outline>
</glyph>
<glyph name="sterling" format="2">
  <advance width="1296"/>
  <unicode hex="00A3"/>
  <outline>
    <contour>
      <point x="100" y="0" type="line"/>
      <point x="1052" y="0" type="line"/>
      <point x="1074" y="104" type="line"/>
      <point x="352" y="104" type="line"/>
      <point x="526" y="208"/>
      <point x="566" y="332"/>
      <point x="566" y="468" type="curve" smooth="yes"/>
      <point x="566" y="632"/>
      <point x="556" y="816"/>
      <point x="556" y="982" type="curve" smooth="yes"/>
      <point x="556" y="1196"/>
      <point x="682" y="1324"/>
      <point x="888" y="1324" type="curve" smooth="yes"/>
      <point x="1016" y="1324"/>
      <point x="1118" y="1288"/>
      <point x="1202" y="1204" type="curve"/>
      <point x="1274" y="1288" type="line"/>
      <point x="1186" y="1374"/>
      <point x="1056" y="1430"/>
      <point x="892" y="1430" type="curve" smooth="yes"/>
      <point x="632" y="1430"/>
      <point x="440" y="1254"/>
      <point x="440" y="996" type="curve" smooth="yes"/>
      <point x="440" y="816"/>
      <point x="468" y="656"/>
      <point x="468" y="486" type="curve" smooth="yes"/>
      <point x="468" y="276"/>
      <point x="358" y="176"/>
      <point x="122" y="106" type="curve"/>
    </contour>
    <contour>
      <point x="214" y="638" type="line"/>
      <point x="1052" y="638" type="line"/>
      <point x="1072" y="738" type="line"/>
      <point x="234" y="738" type="line"/>
    </contour>
  </outline>
</glyph>
<glyph name="twosuperior" format="2">
  <advance width="828"/>
  <unicode hex="00B2"/>
  <outline>
    <contour>
      <point x="162" y="722" type="line"/>
      <point x="776" y="722" type="line"/>
      <point x="794" y="814" type="line"/>
      <point x="322" y="814" type="line"/>
      <point x="540" y="972" type="line" smooth="yes"/>
      <point x="742" y="1118"/>
      <point x="888" y="1246"/>
      <point x="888" y="1414" type="curve" smooth="yes"/>
      <point x="888" y="1560"/>
      <point x="770" y="1652"/>
      <point x="588" y="1652" type="curve" smooth="yes"/>
      <point x="498" y="1652"/>
      <point x="411" y="1628"/>
      <point x="341" y="1579" type="curve"/>
      <point x="368" y="1500" type="line"/>
      <point x="422" y="1540"/>
      <point x="498" y="1558"/>
      <point x="566" y="1558" type="curve" smooth="yes"/>
      <point x="702" y="1558"/>
      <point x="784" y="1500"/>
      <point x="784" y="1402" type="curve" smooth="yes"/>
      <point x="784" y="1258"/>
      <point x="622" y="1132"/>
      <point x="436" y="994" type="curve" smooth="yes"/>
      <point x="180" y="804" type="line"/>
    </contour>
  </outline>
</glyph>
<glyph name="onesuperior" format="2">
  <advance width="632"/>
  <unicode hex="00B9"/>
  <outline>
    <contour>
      <point x="404" y="722" type="line"/>
      <point x="504" y="722" type="line"/>
      <point x="702" y="1652" type="line"/>
      <point x="692" y="1652" type="line"/>
      <point x="268" y="1510" type="line"/>
      <point x="294" y="1432" type="line"/>
      <point x="576" y="1522" type="line"/>
    </contour>
  </outline>
</glyph>
<glyph name="ordmasculine" format="2">
  <advance width="844"/>
  <unicode hex="00BA"/>
  <anchor x="492" y="722" name="bottom"/>
  <anchor x="852" y="1354" name="horn"/>
  <anchor x="612" y="722" name="ogonek"/>
  <anchor x="590" y="1354" name="top"/>
  <outline>
    <contour>
      <point x="508" y="702" type="curve" smooth="yes"/>
      <point x="714" y="702"/>
      <point x="892" y="872"/>
      <point x="892" y="1074" type="curve" smooth="yes"/>
      <point x="892" y="1238"/>
      <point x="764" y="1374"/>
      <point x="574" y="1374" type="curve" smooth="yes"/>
      <point x="368" y="1374"/>
      <point x="190" y="1202"/>
      <point x="190" y="1004" type="curve" smooth="yes"/>
      <point x="190" y="836"/>
      <point x="318" y="702"/>
    </contour>
    <contour>
      <point x="518" y="796" type="curve" smooth="yes"/>
      <point x="384" y="796"/>
      <point x="296" y="876"/>
      <point x="296" y="1004" type="curve" smooth="yes"/>
      <point x="296" y="1152"/>
      <point x="402" y="1280"/>
      <point x="564" y="1280" type="curve" smooth="yes"/>
      <point x="696" y="1280"/>
      <point x="786" y="1200"/>
      <point x="786" y="1072" type="curve" smooth="yes"/>
      <point x="786" y="922"/>
      <point x="678" y="796"/>
    </contour>
  </outline>
</glyph>
<glyph name="AE" format="2">
  <advance width="1740"/>
  <unicode hex="00C6"/>
  <anchor x="1320" y="1400" name="top"/>
  <outline>
    <contour>
      <point x="-112" y="0" type="line"/>
      <point x="22" y="0" type="line"/>
      <point x="284" y="380" type="line"/>
      <point x="748" y="380" type="line"/>
      <point x="668" y="0" type="line"/>
      <point x="1488" y="0" type="line"/>
      <point x="1510" y="108" type="line"/>
      <point x="806" y="108" type="line"/>
      <point x="930" y="688" type="line"/>
      <point x="1558" y="688" type="line"/>
      <point x="1580" y="796" type="line"/>
      <point x="952" y="796" type="line"/>
      <point x="1058" y="1292" type="line"/>
      <point x="1754" y="1292" type="line"/>
      <point x="1776" y="1400" type="line"/>
      <point x="894" y="1400" type="line"/>
    </contour>
    <contour>
      <point x="352" y="484" type="line"/>
      <point x="944" y="1302" type="line"/>
      <point x="770" y="484" type="line"/>
    </contour>
  </outline>
</glyph>
<glyph name="multiply" format="2">
  <advance width="1296"/>
  <unicode hex="00D7"/>
  <outline>
    <contour>
      <point x="278" y="270" type="line"/>
      <point x="676" y="594" type="line"/>
      <point x="936" y="272" type="line"/>
      <point x="1014" y="338" type="line"/>
      <point x="758" y="660" type="line"/>
      <point x="1154" y="982" type="line"/>
      <point x="1100" y="1056" type="line"/>
      <point x="700" y="732" type="line"/>
      <point x="442" y="1054" type="line"/>
      <point x="362" y="986" type="line"/>
      <point x="620" y="666" type="line"/>
      <point x="220" y="342" type="line"/>
    </contour>
  </outline>
</glyph>
<glyph name="Oslash" format="2">
  <advance width="1696"/>
  <unicode hex="00D8"/>
  <anchor x="1007" y="1400" name="top"/>
  <outline>
    <contour>
      <point x="221" y="-18" type="line"/>
      <point x="375" y="128" type="line"/>
      <point x="489" y="28"/>
      <point x="641" y="-30"/>
      <point x="821" y="-30" type="curve" smooth="yes"/>
      <point x="1261" y="-30"/>
      <point x="1631" y="344"/>
      <point x="1631" y="780" type="curve" smooth="yes"/>
      <point x="1631" y="940"/>
      <point x="1579" y="1084"/>
      <point x="1487" y="1196" type="curve"/>
      <point x="1641" y="1342" type="line"/>
      <point x="1569" y="1418" type="line"/>
      <point x="1415" y="1270" type="line"/>
      <point x="1299" y="1370"/>
      <point x="1147" y="1430"/>
      <point x="967" y="1430" type="curve" smooth="yes"/>
      <point x="525" y="1430"/>
      <point x="159" y="1058"/>
      <point x="159" y="618" type="curve" smooth="yes"/>
      <point x="159" y="456"/>
      <point x="211" y="312"/>
      <point x="301" y="202" type="curve"/>
      <point x="149" y="58" type="line"/>
    </contour>
    <contour>
      <point x="389" y="286" type="line"/>
      <point x="319" y="372"/>
      <point x="281" y="486"/>
      <point x="281" y="620" type="curve" smooth="yes"/>
      <point x="281" y="1006"/>
      <point x="575" y="1318"/>
      <point x="957" y="1318" type="curve" smooth="yes"/>
      <point x="1103" y="1318"/>
      <point x="1235" y="1272"/>
      <point x="1329" y="1188" type="curve"/>
    </contour>
    <contour>
      <point x="833" y="82" type="curve" smooth="yes"/>
      <point x="687" y="82"/>
      <point x="555" y="128"/>
      <point x="461" y="212" type="curve"/>
      <point x="1401" y="1114" type="line"/>
      <point x="1471" y="1028"/>
      <point x="1509" y="914"/>
      <point x="1509" y="780" type="curve" smooth="yes"/>
      <point x="1509" y="394"/>
      <point x="1215" y="82"/>
    </contour>
  </outline>
</glyph>
<glyph name="eth" format="2">
  <advance width="1155"/>
  <unicode hex="00F0"/>
  <outline>
    <contour>
      <point x="513" y="-30" type="curve" smooth="yes"/>
      <point x="843" y="-30"/>
      <point x="1079" y="246"/>
      <point x="1079" y="606" type="curve" smooth="yes"/>
      <point x="1079" y="908"/>
      <point x="923" y="1200"/>
      <point x="611" y="1470" type="curve"/>
      <point x="503" y="1406" type="line"/>
      <point x="721" y="1234"/>
      <point x="859" y="1038"/>
      <point x="929" y="830" type="curve"/>
      <point x="941" y="836" type="line"/>
      <point x="863" y="918"/>
      <point x="753" y="970"/>
      <point x="621" y="970" type="curve" smooth="yes"/>
      <point x="327" y="970"/>
      <point x="77" y="710"/>
      <point x="77" y="410" type="curve" smooth="yes"/>
      <point x="77" y="168"/>
      <point x="249" y="-30"/>
    </contour>
    <contour>
      <point x="531" y="78" type="curve" smooth="yes"/>
      <point x="329" y="78"/>
      <point x="195" y="204"/>
      <point x="195" y="402" type="curve" smooth="yes"/>
      <point x="195" y="646"/>
      <point x="357" y="862"/>
      <point x="607" y="862" type="curve" smooth="yes"/>
      <point x="815" y="862"/>
      <point x="949" y="732"/>
      <point x="949" y="528" type="curve" smooth="yes"/>
      <point x="949" y="282"/>
      <point x="785" y="78"/>
    </contour>
    <contour>
      <point x="417" y="1108" type="line"/>
      <point x="717" y="1232" type="line"/>
      <point x="719" y="1234" type="line"/>
      <point x="995" y="1352" type="line"/>
      <point x="1015" y="1454" type="line"/>
      <point x="731" y="1332" type="line"/>
      <point x="731" y="1330" type="line"/>
      <point x="437" y="1208" type="line"/>
    </contour>
  </outline>
</glyph>
<glyph name="oslash" format="2">
  <advance width="1184"/>
  <unicode hex="00F8"/>
  <anchor x="694" y="960" name="top"/>
  <outline>
    <contour>
      <point x="136" y="-26" type="line"/>
      <point x="238" y="74" type="line"/>
      <point x="316" y="8"/>
      <point x="420" y="-30"/>
      <point x="540" y="-30" type="curve" smooth="yes"/>
      <point x="842" y="-30"/>
      <point x="1104" y="232"/>
      <point x="1104" y="534" type="curve" smooth="yes"/>
      <point x="1104" y="644"/>
      <point x="1070" y="744"/>
      <point x="1008" y="822" type="curve"/>
      <point x="1110" y="924" type="line"/>
      <point x="1048" y="986" type="line"/>
      <point x="946" y="886" type="line"/>
      <point x="868" y="952"/>
      <point x="764" y="990"/>
      <point x="644" y="990" type="curve" smooth="yes"/>
      <point x="342" y="990"/>
      <point x="80" y="728"/>
      <point x="80" y="426" type="curve" smooth="yes"/>
      <point x="80" y="316"/>
      <point x="114" y="216"/>
      <point x="176" y="138" type="curve"/>
      <point x="74" y="36" type="line"/>
    </contour>
    <contour>
      <point x="258" y="218" type="line"/>
      <point x="220" y="270"/>
      <point x="200" y="340"/>
      <point x="200" y="420" type="curve" smooth="yes"/>
      <point x="200" y="672"/>
      <point x="372" y="882"/>
      <point x="630" y="882" type="curve" smooth="yes"/>
      <point x="726" y="882"/>
      <point x="804" y="856"/>
      <point x="864" y="808" type="curve"/>
    </contour>
    <contour>
      <point x="554" y="78" type="curve" smooth="yes"/>
      <point x="458" y="78"/>
      <point x="380" y="104"/>
      <point x="320" y="152" type="curve"/>
      <point x="926" y="742" type="line"/>
      <point x="964" y="690"/>
      <point x="984" y="620"/>
      <point x="984" y="540" type="curve" smooth="yes"/>
      <point x="984" y="288"/>
      <point x="812" y="78"/>
    </contour>
  </outline>
</glyph>
<glyph name="aogonek" format="2">
  <advance width="1057"/>
  <unicode hex="0105"/>
  <anchor x="399" y="0" name="bottom"/>
  <anchor x="795" y="0" name="ogonek"/>
  <anchor x="601" y="960" name="top"/>
  <outline>
    <contour>
      <point x="556" y="-450" type="curve" smooth="yes"/>
      <point x="612" y="-450"/>
      <point x="665" y="-436"/>
      <point x="711" y="-409" type="curve"/>
      <point x="689" y="-313" type="line"/>
      <point x="661" y="-333"/>
      <point x="628" y="-343"/>
      <point x="588" y="-343" type="curve" smooth="yes"/>
      <point x="533" y="-343"/>
      <point x="502" y="-318"/>
      <point x="502" y="-253" type="curve" smooth="yes"/>
      <point x="502" y="-152"/>
      <point x="597" y="-63"/>
      <point x="795" y="0" type="curve"/>
      <point x="772.5" y="59.0" type="line"/>
      <point x="529.5" y="-1.0"/>
      <point x="376.0" y="-139.5"/>
      <point x="376" y="-276" type="curve" smooth="yes"/>
      <point x="376" y="-388"/>
      <point x="447" y="-450"/>
    </contour>
    <component base="a"/>
  </outline>
</glyph>
<glyph name="eogonek" format="2">
  <advance width="1108"/>
  <unicode hex="0119"/>
  <anchor x="485" y="0" name="bottom"/>
  <anchor x="781" y="0" name="ogonek"/>
  <anchor x="653" y="960" name="top"/>
  <outline>
    <contour>
      <point x="551" y="-30" type="curve" smooth="yes"/>
      <point x="662" y="-30"/>
      <point x="787" y="0"/>
      <point x="889" y="66" type="curve"/>
      <point x="841" y="166" type="line"/>
      <point x="763" y="108"/>
      <point x="659" y="78"/>
      <point x="567" y="78" type="curve" smooth="yes"/>
      <point x="325" y="78"/>
      <point x="165" y="220"/>
      <point x="203" y="468" type="curve"/>
      <point x="1025" y="468" type="line"/>
      <point x="1093" y="750"/>
      <point x="935" y="990"/>
      <point x="633" y="990" type="curve" smooth="yes"/>
      <point x="321" y="990"/>
      <point x="77" y="720"/>
      <point x="77" y="404" type="curve" smooth="yes"/>
      <point x="77" y="144"/>
      <point x="265" y="-30"/>
    </contour>
    <contour>
      <point x="225" y="572" type="line"/>
      <point x="269" y="770"/>
      <point x="417" y="882"/>
      <point x="613" y="882" type="curve" smooth="yes"/>
      <point x="817" y="882"/>
      <point x="935" y="786"/>
      <point x="921" y="572" type="curve"/>
    </contour>
    <contour>
      <point x="542" y="-450" type="curve" smooth="yes"/>
      <point x="598" y="-450"/>
      <point x="651" y="-436"/>
      <point x="697" y="-409" type="curve"/>
      <point x="675" y="-313" type="line"/>
      <point x="647" y="-333"/>
      <point x="614" y="-343"/>
      <point x="574" y="-343" type="curve" smooth="yes"/>
      <point x="519" y="-343"/>
      <point x="488" y="-318"/>
      <point x="488" y="-253" type="curve" smooth="yes"/>
      <point x="488" y="-152"/>
      <point x="583" y="-63"/>
      <point x="772" y="9" type="curve"/>
      <point x="747" y="75" type="line"/>
      <point x="514" y="6"/>
      <point x="362" y="-136"/>
      <point x="362" y="-276" type="curve" smooth="yes"/>
      <point x="362" y="-388"/>
      <point x="433" y="-450"/>
    </contour>
  </outline>
</glyph>
<glyph name="idotless" format="2">
  <advance width="452"/>
  <unicode hex="0131"/>
  <anchor x="124" y="0" name="bottom"/>
  <anchor x="180" y="0" name="ogonek"/>
  <anchor x="328" y="960" name="top"/>
  <outline>
    <contour>
      <point x="68" y="0" type="line"/>
      <point x="180" y="0" type="line"/>
      <point x="384" y="960" type="line"/>
      <point x="272" y="960" type="line"/>
    </contour>
  </outline>
</glyph>
<glyph name="Lslash" format="2">
  <advance width="1096"/>
  <unicode hex="0141"/>
  <anchor x="528" y="0" name="bottom"/>
  <anchor x="562" y="1440" name="caron"/>
  <anchor x="494" y="1400" name="top"/>
  <outline>
    <contour>
      <point x="100" y="517" type="line"/>
      <point x="326" y="614" type="line"/>
      <point x="324" y="604" type="line"/>
      <point x="1024" y="903" type="line"/>
      <point x="992" y="979" type="line"/>
      <point x="344" y="702" type="line"/>
      <point x="346" y="712" type="line"/>
      <point x="68" y="592" type="line"/>
    </contour>
    <component base="L" xOffset="40"/>
  </outline>
</glyph>
<glyph name="lslash" format="2">
  <advance width="594"/>
  <unicode hex="0142"/>
  <anchor x="192" y="0" name="bottom"/>
  <anchor x="556" y="1440" name="caron"/>
  <anchor x="500" y="1440" name="top"/>
  <outline>
    <contour>
      <point x="100" y="506" type="line"/>
      <point x="326" y="602" type="line"/>
      <point x="324" y="592" type="line"/>
      <point x="595" y="707" type="line"/>
      <point x="562" y="785" type="line"/>
      <point x="338" y="690" type="line"/>
      <point x="340" y="700" type="line"/>
      <point x="69" y="583" type="line"/>
    </contour>
    <component base="l" xOffset="68"/>
  </outline>
</glyph>
<glyph name="Uogonek" format="2">
  <advance width="1444"/>
  <unicode hex="0172"/>
  <anchor x="918" y="1400" name="top"/>
  <outline>
    <contour>
      <point x="698" y="-450" type="curve" smooth="yes"/>
      <point x="754" y="-450"/>
      <point x="807" y="-436"/>
      <point x="853" y="-409" type="curve"/>
      <point x="831" y="-313" type="line"/>
      <point x="803" y="-333"/>
      <point x="770" y="-343"/>
      <point x="730" y="-343" type="curve" smooth="yes"/>
      <point x="675" y="-343"/>
      <point x="644" y="-318"/>
      <point x="644" y="-253" type="curve" smooth="yes"/>
      <point x="644" y="-145"/>
      <point x="733" y="-51"/>
      <point x="876" y="9" type="curve" smooth="yes"/>
      <point x="1081" y="87"/>
      <point x="1212" y="278"/>
      <point x="1262" y="516" type="curve" smooth="yes"/>
      <point x="1450" y="1400" type="line"/>
      <point x="1334" y="1400" type="line"/>
      <point x="1150" y="532" type="line" smooth="yes"/>
      <point x="1084" y="220"/>
      <point x="904" y="82"/>
      <point x="668" y="82" type="curve" smooth="yes"/>
      <point x="382" y="82"/>
      <point x="258" y="250"/>
      <point x="318" y="532" type="curve" smooth="yes"/>
      <point x="502" y="1400" type="line"/>
      <point x="386" y="1400" type="line"/>
      <point x="198" y="516" type="line" smooth="yes"/>
      <point x="130" y="200"/>
      <point x="308" y="-28"/>
      <point x="652" y="-30" type="curve"/>
      <point x="570" y="-100"/>
      <point x="518" y="-188"/>
      <point x="518" y="-276" type="curve" smooth="yes"/>
      <point x="518" y="-388"/>
      <point x="589" y="-450"/>
    </contour>
  </outline>
</glyph>
<glyph name="uogonek" format="2">
  <advance width="1143"/>
  <unicode hex="0173"/>
  <anchor x="453" y="0" name="bottom"/>
  <anchor x="871" y="0" name="descender"/>
  <anchor x="1075" y="960" name="horn"/>
  <anchor x="871" y="0" name="ogonek"/>
  <anchor x="665" y="960" name="top"/>
  <outline>
    <contour>
      <point x="632" y="-450" type="curve" smooth="yes"/>
      <point x="688" y="-450"/>
      <point x="741" y="-436"/>
      <point x="787" y="-409" type="curve"/>
      <point x="765" y="-313" type="line"/>
      <point x="737" y="-333"/>
      <point x="704" y="-343"/>
      <point x="664" y="-343" type="curve" smooth="yes"/>
      <point x="609" y="-343"/>
      <point x="578" y="-318"/>
      <point x="578" y="-253" type="curve" smooth="yes"/>
      <point x="578" y="-152"/>
      <point x="673" y="-63"/>
      <point x="871" y="0" type="curve"/>
      <point x="848.5" y="59.0" type="line"/>
      <point x="605.5" y="-1.0"/>
      <point x="452.0" y="-139.5"/>
      <point x="452" y="-276" type="curve" smooth="yes"/>
      <point x="452" y="-388"/>
      <point x="523" y="-450"/>
    </contour>
    <component base="u"/>
  </outline>
</glyph>
<glyph name="Oogonek" format="2">
  <advance width="1696"/>
  <unicode hex="01EA"/>
  <anchor x="1007" y="1400" name="top"/>
  <outline>
    <contour>
      <point x="756" y="-450" type="curve" smooth="yes"/>
      <point x="812" y="-450"/>
      <point x="865" y="-436"/>
      <point x="911" y="-409" type="curve"/>
      <point x="889" y="-313" type="line"/>
      <point x="861" y="-333"/>
      <point x="828" y="-343"/>
      <point x="788" y="-343" type="curve" smooth="yes"/>
      <point x="733" y="-343"/>
      <point x="702" y="-318"/>
      <point x="702" y="-253" type="curve" smooth="yes"/>
      <point x="702" y="-156"/>
      <point x="797" y="-71"/>
      <point x="995" y="-10" type="curve"/>
      <point x="969" y="58" type="line"/>
      <point x="728" y="-2"/>
      <point x="576" y="-140"/>
      <point x="576" y="-276" type="curve" smooth="yes"/>
      <point x="576" y="-388"/>
      <point x="647" y="-450"/>
    </contour>
    <contour>
      <point x="821" y="-30" type="curve" smooth="yes"/>
      <point x="1261" y="-30"/>
      <point x="1631" y="342"/>
      <point x="1631" y="782" type="curve" smooth="yes"/>
      <point x="1631" y="1148"/>
      <point x="1359" y="1430"/>
      <point x="967" y="1430" type="curve" smooth="yes"/>
      <point x="525" y="1430"/>
      <point x="159" y="1060"/>
      <point x="159" y="614" type="curve" smooth="yes"/>
      <point x="159" y="246"/>
      <point x="429" y="-30"/>
    </contour>
    <contour>
      <point x="833" y="82" type="curve" smooth="yes"/>
      <point x="515" y="82"/>
      <point x="281" y="296"/>
      <point x="281" y="620" type="curve" smooth="yes"/>
      <point x="281" y="1006"/>
      <point x="575" y="1318"/>
      <point x="957" y="1318" type="curve" smooth="yes"/>
      <point x="1279" y="1318"/>
      <point x="1509" y="1104"/>
      <point x="1509" y="780" type="curve" smooth="yes"/>
      <point x="1509" y="394"/>
      <point x="1215" y="82"/>
    </contour>
  </outline>
</glyph>
<glyph name="oogonek" format="2">
  <advance width="1184"/>
  <unicode hex="01EB"/>
  <anchor x="668" y="960" name="top"/>
  <outline>
    <contour>
      <point x="493" y="-450" type="curve" smooth="yes"/>
      <point x="549" y="-450"/>
      <point x="602" y="-436"/>
      <point x="648" y="-409" type="curve"/>
      <point x="626" y="-313" type="line"/>
      <point x="598" y="-333"/>
      <point x="565" y="-343"/>
      <point x="525" y="-343" type="curve" smooth="yes"/>
      <point x="470" y="-343"/>
      <point x="439" y="-318"/>
      <point x="439" y="-253" type="curve" smooth="yes"/>
      <point x="439" y="-155"/>
      <point x="526" y="-68"/>
      <point x="705" y="-4" type="curve" smooth="yes"/>
      <point x="930" y="76"/>
      <point x="1104" y="289"/>
      <point x="1104" y="538" type="curve" smooth="yes"/>
      <point x="1104" y="786"/>
      <point x="922" y="990"/>
      <point x="644" y="990" type="curve" smooth="yes"/>
      <point x="342" y="990"/>
      <point x="80" y="728"/>
      <point x="80" y="424" type="curve" smooth="yes"/>
      <point x="80" y="190"/>
      <point x="237" y="-1"/>
      <point x="482" y="-27" type="curve"/>
      <point x="375" y="-97"/>
      <point x="313" y="-187"/>
      <point x="313" y="-276" type="curve" smooth="yes"/>
      <point x="313" y="-388"/>
      <point x="384" y="-450"/>
    </contour>
    <contour>
      <point x="554" y="78" type="curve" smooth="yes"/>
      <point x="338" y="78"/>
      <point x="200" y="210"/>
      <point x="200" y="420" type="curve" smooth="yes"/>
      <point x="200" y="672"/>
      <point x="372" y="882"/>
      <point x="630" y="882" type="curve" smooth="yes"/>
      <point x="844" y="882"/>
      <point x="984" y="750"/>
      <point x="984" y="540" type="curve" smooth="yes"/>
      <point x="984" y="288"/>
      <point x="812" y="78"/>
    </contour>
  </outline>
</glyph>
<glyph name="gravecomb" format="2">
  <unicode hex="0300"/>
  <anchor x="340" y="960" name="_top"/>
  <anchor x="370" y="960" name="_top_right"/>
  <outline>
    <contour>
      <point x="358" y="1170" type="line"/>
      <point x="466" y="1170" type="line"/>
      <point x="350" y="1504" type="line"/>
      <point x="228" y="1504" type="line"/>
    </contour>
  </outline>
</glyph>
<glyph name="acutecomb" format="2">
  <unicode hex="0301"/>
  <anchor x="177" y="960" name="_top"/>
  <outline>
    <contour>
      <point x="157" y="1170" type="line"/>
      <point x="269" y="1170" type="line"/>
      <point x="531" y="1504" type="line"/>
      <point x="407" y="1504" type="line"/>
    </contour>
  </outline>
</glyph>
<glyph name="tildecomb" format="2">
  <unicode hex="0303"/>
  <anchor x="454" y="960" name="_top"/>
  <anchor x="536" y="1344" name="top"/>
  <outline>
    <contour>
      <point x="240" y="1216" type="line"/>
      <point x="286" y="1296"/>
      <point x="334" y="1340"/>
      <point x="390" y="1340" type="curve" smooth="yes"/>
      <point x="476" y="1340"/>
      <point x="546" y="1236"/>
      <point x="656" y="1236" type="curve" smooth="yes"/>
      <point x="740" y="1236"/>
      <point x="826" y="1302"/>
      <point x="892" y="1414" type="curve"/>
      <point x="828" y="1460" type="line"/>
      <point x="786" y="1382"/>
      <point x="734" y="1334"/>
      <point x="678" y="1334" type="curve" smooth="yes"/>
      <point x="592" y="1334"/>
      <point x="522" y="1440"/>
      <point x="412" y="1440" type="curve" smooth="yes"/>
      <point x="322" y="1440"/>
      <point x="238" y="1366"/>
      <point x="176" y="1260" type="curve"/>
    </contour>
  </outline>
</glyph>
<glyph name="macroncomb" format="2">
  <unicode hex="0304"/>
  <anchor x="401" y="960" name="_top"/>
  <outline>
    <contour>
      <point x="169" y="1230" type="line"/>
      <point x="745" y="1230" type="line"/>
      <point x="769" y="1334" type="line"/>
      <point x="193" y="1334" type="line"/>
    </contour>
  </outline>
</glyph>
<glyph name="brevecomb" format="2">
  <unicode hex="0306"/>
  <anchor x="450" y="960" name="_top"/>
  <anchor x="546" y="1404" name="top"/>
  <outline>
    <contour>
      <point x="522" y="1160" type="curve" smooth="yes"/>
      <point x="710" y="1160"/>
      <point x="866" y="1304"/>
      <point x="882" y="1504" type="curve"/>
      <point x="780" y="1504" type="line"/>
      <point x="768" y="1354"/>
      <point x="670" y="1256"/>
      <point x="534" y="1256" type="curve" smooth="yes"/>
      <point x="394" y="1256"/>
      <point x="312" y="1346"/>
      <point x="332" y="1504" type="curve"/>
      <point x="228" y="1504" type="line"/>
      <point x="208" y="1294"/>
      <point x="324" y="1160"/>
    </contour>
  </outline>
</glyph>
<glyph name="hookabovecomb" format="2">
  <unicode hex="0309"/>
  <anchor x="340" y="960" name="_top"/>
  <outline>
    <contour>
      <point x="338" y="1170" type="curve"/>
      <point x="428" y="1170" type="line"/>
      <point x="408" y="1252"/>
      <point x="424" y="1274"/>
      <point x="520" y="1310" type="curve" smooth="yes"/>
      <point x="612" y="1344"/>
      <point x="688" y="1384"/>
      <point x="688" y="1480" type="curve" smooth="yes"/>
      <point x="688" y="1582"/>
      <point x="568" y="1634"/>
      <point x="434" y="1634" type="curve" smooth="yes"/>
      <point x="370" y="1634"/>
      <point x="304" y="1622"/>
      <point x="248" y="1600" type="curve"/>
      <point x="264" y="1520" type="line"/>
      <point x="312" y="1540"/>
      <point x="374" y="1550"/>
      <point x="432" y="1550" type="curve" smooth="yes"/>
      <point x="522" y="1550"/>
      <point x="588" y="1514"/>
      <point x="588" y="1458" type="curve" smooth="yes"/>
      <point x="588" y="1398"/>
      <point x="538" y="1384"/>
      <point x="458" y="1360" type="curve" smooth="yes"/>
      <point x="342" y="1326"/>
      <point x="304" y="1268"/>
    </contour>
  </outline>
</glyph>
<glyph name="hungarumlautcomb" format="2">
  <unicode hex="030B"/>
  <anchor x="337" y="960" name="_top"/>
  <outline>
    <contour>
      <point x="497" y="1170" type="line"/>
      <point x="609" y="1170" type="line"/>
      <point x="871" y="1504" type="line"/>
      <point x="747" y="1504" type="line"/>
    </contour>
    <contour>
      <point x="157" y="1170" type="line"/>
      <point x="269" y="1170" type="line"/>
      <point x="531" y="1504" type="line"/>
      <point x="407" y="1504" type="line"/>
    </contour>
  </outline>
</glyph>
<glyph name="caroncomb" format="2">
  <unicode hex="030C"/>
  <anchor x="422" y="960" name="_top"/>
  <outline>
    <contour>
      <point x="400" y="1170" type="line"/>
      <point x="520" y="1170" type="line"/>
      <point x="854" y="1504" type="line"/>
      <point x="726" y="1504" type="line"/>
      <point x="470" y="1248" type="line"/>
      <point x="340" y="1504" type="line"/>
      <point x="228" y="1504" type="line"/>
    </contour>
  </outline>
</glyph>
<glyph name="dblgravecomb" format="2">
  <unicode hex="030F"/>
  <anchor x="532" y="960" name="_top"/>
  <outline>
    <contour>
      <point x="696" y="1170" type="line"/>
      <point x="800" y="1170" type="line"/>
      <point x="686" y="1504" type="line"/>
      <point x="570" y="1504" type="line"/>
    </contour>
    <contour>
      <point x="358" y="1170" type="line"/>
      <point x="462" y="1170" type="line"/>
      <point x="344" y="1504" type="line"/>
      <point x="228" y="1504" type="line"/>
    </contour>
  </outline>
</glyph>
<glyph name="breveinvertedcomb" format="2">
  <unicode hex="0311"/>
  <anchor x="433" y="960" name="_top"/>
  <outline>
    <contour>
      <point x="161" y="1170" type="curve"/>
      <point x="261" y="1170" type="line"/>
      <point x="273" y="1320"/>
      <point x="375" y="1418"/>
      <point x="509" y="1418" type="curve" smooth="yes"/>
      <point x="661" y="1418"/>
      <point x="733" y="1314"/>
      <point x="709" y="1170" type="curve"/>
      <point x="813" y="1170" type="line"/>
      <point x="841" y="1360"/>
      <point x="721" y="1514"/>
      <point x="521" y="1514" type="curve" smooth="yes"/>
      <point x="329" y="1514"/>
      <point x="175" y="1372"/>
    </contour>
  </outline>
</glyph>
<glyph name="commaturnedabovecomb" format="2">
  <unicode hex="0312"/>
  <anchor x="209" y="960" name="_top"/>
  <outline>
    <contour>
      <point x="299" y="1244" type="curve" smooth="yes"/>
      <point x="357" y="1244"/>
      <point x="399" y="1281"/>
      <point x="399" y="1334" type="curve" smooth="yes"/>
      <point x="399" y="1382"/>
      <point x="361" y="1413"/>
      <point x="306" y="1415" type="curve"/>
      <point x="328" y="1459"/>
      <point x="396" y="1511"/>
      <point x="492" y="1551" type="curve"/>
      <point x="450" y="1613" type="line"/>
      <point x="319" y="1557"/>
      <point x="198" y="1465"/>
      <point x="198" y="1347" type="curve" smooth="yes"/>
      <point x="198" y="1279"/>
      <point x="240" y="1244"/>
    </contour>
  </outline>
</glyph>
<glyph name="horncomb" format="2">
  <unicode hex="031B"/>
  <anchor x="530" y="960" name="_horn"/>
  <outline>
    <contour>
      <point x="568" y="836" type="curve" smooth="yes"/>
      <point x="700" y="836"/>
      <point x="774" y="918"/>
      <point x="774" y="1014" type="curve" smooth="yes"/>
      <point x="774" y="1062"/>
      <point x="756" y="1114"/>
      <point x="716" y="1166" type="curve"/>
      <point x="620" y="1126" type="line"/>
      <point x="654" y="1080"/>
      <point x="666" y="1036"/>
      <point x="666" y="1002" type="curve" smooth="yes"/>
      <point x="666" y="942"/>
      <point x="616" y="916"/>
      <point x="548" y="920" type="curve" smooth="yes"/>
      <point x="466" y="925"/>
      <point x="300" y="990"/>
      <point x="118" y="990" type="curve"/>
      <point x="104" y="922" type="line"/>
      <point x="306" y="930"/>
      <point x="458" y="836"/>
    </contour>
  </outline>
</glyph>
<glyph name="commaaccentcomb" format="2">
  <unicode hex="0326"/>
  <anchor x="65" y="0" name="_bottom"/>
  <outline>
    <contour>
      <point x="-176" y="-653" type="line"/>
      <point x="-45" y="-597"/>
      <point x="76" y="-505"/>
      <point x="76" y="-387" type="curve" smooth="yes"/>
      <point x="76" y="-319"/>
      <point x="34" y="-284"/>
      <point x="-25" y="-284" type="curve" smooth="yes"/>
      <point x="-83" y="-284"/>
      <point x="-125" y="-321"/>
      <point x="-125" y="-374" type="curve" smooth="yes"/>
      <point x="-125" y="-422"/>
      <point x="-87" y="-453"/>
      <point x="-32" y="-455" type="curve"/>
      <point x="-54" y="-499"/>
      <point x="-122" y="-551"/>
      <point x="-218" y="-591" type="curve"/>
    </contour>
  </outline>
</glyph>
<glyph name="cedillacomb" format="2">
  <unicode hex="0327"/>
  <anchor x="123" y="0" name="_bottom"/>
  <outline>
    <contour>
      <point x="39" y="-448" type="curve" smooth="yes"/>
      <point x="165" y="-448"/>
      <point x="287" y="-378"/>
      <point x="287" y="-254" type="curve" smooth="yes"/>
      <point x="287" y="-164"/>
      <point x="207" y="-110"/>
      <point x="95" y="-96" type="curve"/>
      <point x="169" y="40" type="line"/>
      <point x="87" y="40" type="line"/>
      <point x="-3" y="-126" type="line"/>
      <point x="19" y="-184" type="line"/>
      <point x="97" y="-180"/>
      <point x="177" y="-206"/>
      <point x="177" y="-264" type="curve" smooth="yes"/>
      <point x="177" y="-338"/>
      <point x="101" y="-360"/>
      <point x="39" y="-360" type="curve" smooth="yes"/>
      <point x="-25" y="-360"/>
      <point x="-99" y="-332"/>
      <point x="-121" y="-302" type="curve"/>
      <point x="-173" y="-382" type="line"/>
      <point x="-119" y="-424"/>
      <point x="-49" y="-448"/>
    </contour>
  </outline>
</glyph>
<glyph name="brevebelowcomb" format="2">
  <unicode hex="032E"/>
  <anchor x="245" y="0" name="_bottom"/>
  <outline>
    <contour>
      <point x="155" y="-554" type="curve" smooth="yes"/>
      <point x="343" y="-554"/>
      <point x="499" y="-410"/>
      <point x="515" y="-210" type="curve"/>
      <point x="413" y="-210" type="line"/>
      <point x="401" y="-360"/>
      <point x="303" y="-458"/>
      <point x="167" y="-458" type="curve" smooth="yes"/>
      <point x="21" y="-458"/>
      <point x="-55" y="-362"/>
      <point x="-35" y="-210" type="curve"/>
      <point x="-137" y="-210" type="line"/>
      <point x="-169" y="-404"/>
      <point x="-47" y="-554"/>
    </contour>
  </outline>
</glyph>
<glyph name="strokeshortcomb" format="2">
  <unicode hex="0335"/>
  <anchor x="330" y="520" name="_bar"/>
  <outline>
    <contour>
      <point x="8" y="468" type="line"/>
      <point x="628" y="468" type="line"/>
      <point x="650" y="572" type="line"/>
      <point x="30" y="572" type="line"/>
    </contour>
  </outline>
</glyph>
<glyph name="lowernumeral-greek" format="2">
  <advance width="421"/>
  <unicode hex="0375"/>
  <outline>
    <contour>
      <point x="-129" y="-420" type="line"/>
      <point x="-19" y="-420" type="line"/>
      <point x="159" y="-12" type="line"/>
      <point x="71" y="-12" type="line"/>
    </contour>
  </outline>
</glyph>
<glyph name="tonos" format="2">
  <advance width="454"/>
  <unicode hex="0384"/>
  <anchor x="302" y="960" name="_top"/>
  <outline>
    <contour>
      <point x="284" y="1170" type="line"/>
      <point x="392" y="1170" type="line"/>
      <point x="606" y="1504" type="line"/>
      <point x="486" y="1504" type="line"/>
    </contour>
  </outline>
</glyph>
<glyph name="dieresistonos" format="2">
  <unicode hex="0385"/>
  <anchor x="-586" y="960" name="_top"/>
  <outline>
    <contour>
      <point x="-586" y="1216" type="line"/>
      <point x="-490" y="1216" type="line"/>
      <point x="-350" y="1504" type="line"/>
      <point x="-458" y="1504" type="line"/>
    </contour>
    <contour>
      <point x="-753" y="1162" type="curve" smooth="yes"/>
      <point x="-699" y="1162"/>
      <point x="-645" y="1210"/>
      <point x="-645" y="1266" type="curve" smooth="yes"/>
      <point x="-645" y="1312"/>
      <point x="-681" y="1350"/>
      <point x="-729" y="1350" type="curve" smooth="yes"/>
      <point x="-783" y="1350"/>
      <point x="-837" y="1302"/>
      <point x="-837" y="1246" type="curve" smooth="yes"/>
      <point x="-837" y="1202"/>
      <point x="-801" y="1162"/>
    </contour>
    <contour>
      <point x="-296" y="1162" type="curve" smooth="yes"/>
      <point x="-242" y="1162"/>
      <point x="-188" y="1210"/>
      <point x="-188" y="1266" type="curve" smooth="yes"/>
      <point x="-188" y="1312"/>
      <point x="-224" y="1350"/>
      <point x="-272" y="1350" type="curve" smooth="yes"/>
      <point x="-326" y="1350"/>
      <point x="-380" y="1302"/>
      <point x="-380" y="1246" type="curve" smooth="yes"/>
      <point x="-380" y="1202"/>
      <point x="-344" y="1162"/>
    </contour>
  </outline>
</glyph>
<glyph name="Xi" format="2">
  <advance width="1233"/>
  <unicode hex="039E"/>
  <outline>
    <contour>
      <point x="49" y="0" type="line"/>
      <point x="981" y="0" type="line"/>
      <point x="1003" y="108" type="line"/>
      <point x="71" y="108" type="line"/>
    </contour>
    <contour>
      <point x="291" y="674" type="line"/>
      <point x="1023" y="674" type="line"/>
      <point x="1047" y="782" type="line"/>
      <point x="315" y="782" type="line"/>
    </contour>
    <contour>
      <point x="333" y="1292" type="line"/>
      <point x="1245" y="1292" type="line"/>
      <point x="1267" y="1400" type="line"/>
      <point x="355" y="1400" type="line"/>
    </contour>
  </outline>
</glyph>
<glyph name="epsilon" format="2">
  <advance width="1003"/>
  <unicode hex="03B5"/>
  <anchor x="567" y="960" name="top"/>
  <outline>
    <contour>
      <point x="440" y="-30" type="curve" smooth="yes"/>
      <point x="576" y="-30"/>
      <point x="711" y="-2"/>
      <point x="853" y="74" type="curve"/>
      <point x="801" y="174" type="line"/>
      <point x="711" y="112"/>
      <point x="581" y="78"/>
      <point x="449" y="78" type="curve" smooth="yes"/>
      <point x="273" y="78"/>
      <point x="173" y="146"/>
      <point x="173" y="254" type="curve" smooth="yes"/>
      <point x="173" y="388"/>
      <point x="329" y="440"/>
      <point x="509" y="440" type="curve" smooth="yes"/>
      <point x="677" y="440" type="line"/>
      <point x="699" y="544" type="line"/>
      <point x="531" y="544" type="line" smooth="yes"/>
      <point x="391" y="544"/>
      <point x="293" y="600"/>
      <point x="293" y="704" type="curve" smooth="yes"/>
      <point x="293" y="830"/>
      <point x="439" y="880"/>
      <point x="605" y="880" type="curve" smooth="yes"/>
      <point x="731" y="880"/>
      <point x="831" y="858"/>
      <point x="897" y="808" type="curve"/>
      <point x="975" y="906" type="line"/>
      <point x="881" y="964"/>
      <point x="745" y="988"/>
      <point x="613" y="988" type="curve" smooth="yes"/>
      <point x="379" y="988"/>
      <point x="175" y="892"/>
      <point x="175" y="712" type="curve" smooth="yes"/>
      <point x="175" y="614"/>
      <point x="237" y="552"/>
      <point x="335" y="506" type="curve"/>
      <point x="175" y="468"/>
      <point x="53" y="380"/>
      <point x="53" y="232" type="curve" smooth="yes"/>
      <point x="53" y="64"/>
      <point x="202" y="-30"/>
    </contour>
  </outline>
</glyph>
<glyph name="iota" format="2">
  <advance width="576"/>
  <unicode hex="03B9"/>
  <anchor x="319" y="960" name="top"/>
  <outline>
    <contour>
      <point x="277" y="-30" type="curve" smooth="yes"/>
      <point x="313" y="-30"/>
      <point x="375" y="-24"/>
      <point x="433" y="-6" type="curve"/>
      <point x="419" y="98" type="line"/>
      <point x="375" y="86"/>
      <point x="337" y="78"/>
      <point x="305" y="78" type="curve" smooth="yes"/>
      <point x="209" y="78"/>
      <point x="205" y="150"/>
      <point x="225" y="256" type="curve" smooth="yes"/>
      <point x="375" y="960" type="line"/>
      <point x="263" y="960" type="line"/>
      <point x="101" y="204" type="line" smooth="yes"/>
      <point x="69" y="66"/>
      <point x="125" y="-30"/>
    </contour>
  </outline>
</glyph>
<glyph name="nu" format="2">
  <advance width="1005"/>
  <unicode hex="03BD"/>
  <outline>
    <contour>
      <point x="298" y="0" type="line"/>
      <point x="414" y="0" type="line"/>
      <point x="656" y="244"/>
      <point x="873" y="562"/>
      <point x="1030" y="958" type="curve"/>
      <point x="905" y="980" type="line"/>
      <point x="765" y="590"/>
      <point x="562" y="299"/>
      <point x="374" y="105" type="curve"/>
      <point x="399" y="75" type="line"/>
      <point x="268" y="960" type="line"/>
      <point x="144" y="960" type="line"/>
    </contour>
  </outline>
</glyph>
<glyph name="rho" format="2">
  <advance width="1240"/>
  <unicode hex="03C1"/>
  <outline>
    <contour>
      <point x="-51" y="-420" type="line"/>
      <point x="61" y="-420" type="line"/>
      <point x="195" y="204" type="line"/>
      <point x="269" y="68"/>
      <point x="413" y="-30"/>
      <point x="599" y="-30" type="curve" smooth="yes"/>
      <point x="915" y="-30"/>
      <point x="1159" y="230"/>
      <point x="1159" y="536" type="curve" smooth="yes"/>
      <point x="1159" y="784"/>
      <point x="981" y="990"/>
      <point x="703" y="990" type="curve" smooth="yes"/>
      <point x="419" y="990"/>
      <point x="213" y="822"/>
      <point x="151" y="530" type="curve" smooth="yes"/>
    </contour>
    <contour>
      <point x="613" y="78" type="curve" smooth="yes"/>
      <point x="397" y="78"/>
      <point x="259" y="210"/>
      <point x="259" y="420" type="curve" smooth="yes"/>
      <point x="259" y="672"/>
      <point x="411" y="882"/>
      <point x="689" y="882" type="curve" smooth="yes"/>
      <point x="903" y="882"/>
      <point x="1039" y="748"/>
      <point x="1039" y="538" type="curve" smooth="yes"/>
      <point x="1039" y="286"/>
      <point x="871" y="78"/>
    </contour>
  </outline>
</glyph>
<glyph name="sigmafinal" format="2">
  <advance width="976"/>
  <unicode hex="03C2"/>
  <outline>
    <contour>
      <point x="560" y="-436" type="line"/>
      <point x="659" y="-331"/>
      <point x="711" y="-227"/>
      <point x="711" y="-134" type="curve" smooth="yes"/>
      <point x="711" y="141"/>
      <point x="209" y="132"/>
      <point x="209" y="468" type="curve" smooth="yes"/>
      <point x="209" y="697"/>
      <point x="362" y="882"/>
      <point x="609" y="882" type="curve" smooth="yes"/>
      <point x="736" y="882"/>
      <point x="842" y="852"/>
      <point x="907" y="792" type="curve"/>
      <point x="991" y="880" type="line"/>
      <point x="896" y="956"/>
      <point x="783" y="990"/>
      <point x="639" y="990" type="curve" smooth="yes"/>
      <point x="330" y="990"/>
      <point x="89" y="761"/>
      <point x="89" y="466" type="curve" smooth="yes"/>
      <point x="89" y="66"/>
      <point x="592" y="51"/>
      <point x="592" y="-168" type="curve" smooth="yes"/>
      <point x="592" y="-227"/>
      <point x="547" y="-307"/>
      <point x="458" y="-400" type="curve"/>
    </contour>
  </outline>
</glyph>
<glyph name="sigma" format="2">
  <advance width="1250"/>
  <unicode hex="03C3"/>
  <outline>
    <contour>
      <point x="545" y="-30" type="curve" smooth="yes"/>
      <point x="861" y="-30"/>
      <point x="1101" y="222"/>
      <point x="1101" y="528" type="curve" smooth="yes"/>
      <point x="1101" y="672"/>
      <point x="1027" y="784"/>
      <point x="927" y="856" type="curve"/>
      <point x="1266" y="856" type="line"/>
      <point x="1288" y="960" type="line"/>
      <point x="641" y="960" type="line" smooth="yes"/>
      <point x="339" y="960"/>
      <point x="81" y="732"/>
      <point x="81" y="428" type="curve" smooth="yes"/>
      <point x="81" y="176"/>
      <point x="267" y="-30"/>
    </contour>
    <contour>
      <point x="551" y="78" type="curve" smooth="yes"/>
      <point x="335" y="78"/>
      <point x="201" y="214"/>
      <point x="201" y="424" type="curve" smooth="yes"/>
      <point x="201" y="676"/>
      <point x="369" y="852"/>
      <point x="627" y="852" type="curve" smooth="yes"/>
      <point x="841" y="852"/>
      <point x="981" y="728"/>
      <point x="981" y="518" type="curve" smooth="yes"/>
      <point x="981" y="266"/>
      <point x="809" y="78"/>
    </contour>
  </outline>
</glyph>
<glyph name="phi" format="2">
  <advance width="1325"/>
  <unicode hex="03C6"/>
  <outline>
    <contour>
      <point x="379" y="-420" type="line"/>
      <point x="491" y="-420" type="line"/>
      <point x="709" y="620" type="line" smooth="yes"/>
      <point x="749" y="812"/>
      <point x="806" y="884"/>
      <point x="937" y="884" type="curve" smooth="yes"/>
      <point x="1052" y="884"/>
      <point x="1137" y="793"/>
      <point x="1137" y="608" type="curve" smooth="yes"/>
      <point x="1137" y="315"/>
      <point x="937" y="95"/>
      <point x="609" y="95" type="curve" smooth="yes"/>
      <point x="374" y="95"/>
      <point x="209" y="211"/>
      <point x="209" y="452" type="curve" smooth="yes"/>
      <point x="209" y="652"/>
      <point x="302" y="801"/>
      <point x="458" y="936" type="curve"/>
      <point x="373" y="993" type="line"/>
      <point x="192" y="843"/>
      <point x="87" y="667"/>
      <point x="87" y="443" type="curve" smooth="yes"/>
      <point x="87" y="149"/>
      <point x="291" y="-10"/>
      <point x="592" y="-10" type="curve" smooth="yes"/>
      <point x="985" y="-10"/>
      <point x="1259" y="261"/>
      <point x="1259" y="616" type="curve" smooth="yes"/>
      <point x="1259" y="859"/>
      <point x="1128" y="990"/>
      <point x="951" y="990" type="curve" smooth="yes"/>
      <point x="765" y="990"/>
      <point x="650" y="871"/>
      <point x="598" y="625" type="curve" smooth="yes"/>
    </contour>
  </outline>
</glyph>
<glyph name="E-cy" format="2">
  <advance width="1420"/>
  <unicode hex="0404"/>
  <outline>
    <contour>
      <point x="820" y="-30" type="curve" smooth="yes"/>
      <point x="982" y="-30"/>
      <point x="1130" y="8"/>
      <point x="1268" y="96" type="curve"/>
      <point x="1232" y="202" type="line"/>
      <point x="1112" y="118"/>
      <point x="984" y="82"/>
      <point x="848" y="82" type="curve" smooth="yes"/>
      <point x="496" y="82"/>
      <point x="278" y="272"/>
      <point x="278" y="598" type="curve" smooth="yes"/>
      <point x="278" y="1000"/>
      <point x="538" y="1320"/>
      <point x="946" y="1320" type="curve" smooth="yes"/>
      <point x="1120" y="1320"/>
      <point x="1256" y="1270"/>
      <point x="1348" y="1172" type="curve"/>
      <point x="1432" y="1262" type="line"/>
      <point x="1330" y="1368"/>
      <point x="1170" y="1430"/>
      <point x="954" y="1430" type="curve" smooth="yes"/>
      <point x="496" y="1430"/>
      <point x="154" y="1042"/>
      <point x="154" y="582" type="curve" smooth="yes"/>
      <point x="154" y="214"/>
      <point x="404" y="-30"/>
    </contour>
    <contour>
      <point x="256" y="688" type="line"/>
      <point x="1136" y="688" type="line"/>
      <point x="1160" y="796" type="line"/>
      <point x="280" y="796" type="line"/>
    </contour>
  </outline>
</glyph>
<glyph name="Lje-cy" format="2">
  <advance width="2117"/>
  <unicode hex="0409"/>
  <outline>
    <contour>
      <point x="20" y="-20" type="line"/>
      <point x="288" y="54"/>
      <point x="404" y="172"/>
      <point x="572" y="962" type="curve" smooth="yes"/>
      <point x="642" y="1292" type="line"/>
      <point x="1272" y="1292" type="line"/>
      <point x="1412" y="1400" type="line"/>
      <point x="550" y="1400" type="line"/>
      <point x="458" y="962" type="line" smooth="yes"/>
      <point x="306" y="240"/>
      <point x="224" y="144"/>
      <point x="-20" y="88" type="curve"/>
    </contour>
    <contour>
      <point x="1136" y="108" type="line"/>
      <point x="1260" y="688" type="line"/>
      <point x="1550" y="688" type="line" smooth="yes"/>
      <point x="1786" y="688"/>
      <point x="1896" y="596"/>
      <point x="1894" y="420" type="curve" smooth="yes"/>
      <point x="1892" y="216"/>
      <point x="1750" y="108"/>
      <point x="1504" y="108" type="curve" smooth="yes"/>
    </contour>
    <contour>
      <point x="998" y="0" type="line"/>
      <point x="1500" y="0" type="line" smooth="yes"/>
      <point x="1806" y="0"/>
      <point x="2006" y="180"/>
      <point x="2008" y="434" type="curve" smooth="yes"/>
      <point x="2010" y="656"/>
      <point x="1842" y="796"/>
      <point x="1564" y="796" type="curve" smooth="yes"/>
      <point x="1282" y="796" type="line"/>
      <point x="1412" y="1400" type="line"/>
      <point x="1294" y="1400" type="line"/>
    </contour>
  </outline>
</glyph>
<glyph name="Be-cy" format="2">
  <advance width="1227"/>
  <unicode hex="0411"/>
  <outline>
    <contour>
      <point x="100" y="0" type="line"/>
      <point x="590" y="0" type="line" smooth="yes"/>
      <point x="884" y="0"/>
      <point x="1076" y="182"/>
      <point x="1078" y="446" type="curve" smooth="yes"/>
      <point x="1080" y="676"/>
      <point x="920" y="796"/>
      <point x="654" y="796" type="curve" smooth="yes"/>
      <point x="384" y="796" type="line"/>
      <point x="490" y="1292" type="line"/>
      <point x="1182" y="1292" type="line"/>
      <point x="1204" y="1400" type="line"/>
      <point x="396" y="1400" type="line"/>
    </contour>
    <contour>
      <point x="238" y="108" type="line"/>
      <point x="362" y="688" type="line"/>
      <point x="620" y="688" type="line" smooth="yes"/>
      <point x="868" y="688"/>
      <point x="966" y="596"/>
      <point x="964" y="418" type="curve" smooth="yes"/>
      <point x="962" y="236"/>
      <point x="834" y="108"/>
      <point x="574" y="108" type="curve" smooth="yes"/>
    </contour>
  </outline>
</glyph>
<glyph name="Ge-cy" format="2">
  <advance width="1000"/>
  <unicode hex="0413"/>
  <anchor x="486" y="722" name="bar"/>
  <anchor x="216" y="0" name="descender"/>
  <anchor x="760" y="1400" name="top"/>
  <outline>
    <contour>
      <point x="100" y="0" type="line"/>
      <point x="216" y="0" type="line"/>
      <point x="490" y="1292" type="line"/>
      <point x="1102" y="1292" type="line"/>
      <point x="1124" y="1400" type="line"/>
      <point x="396" y="1400" type="line"/>
    </contour>
  </outline>
</glyph>
<glyph name="De-cy" format="2">
  <advance width="1537"/>
  <unicode hex="0414"/>
  <outline>
    <contour>
      <point x="1041" y="0" type="line"/>
      <point x="1157" y="0" type="line"/>
      <point x="1455" y="1400" type="line"/>
      <point x="553" y="1400" type="line"/>
      <point x="459" y="960" type="line" smooth="yes"/>
      <point x="317" y="298"/>
      <point x="225" y="150"/>
      <point x="-35" y="92" type="curve"/>
      <point x="-7" y="8" type="line"/>
      <point x="275" y="74"/>
      <point x="423" y="246"/>
      <point x="575" y="960" type="curve" smooth="yes"/>
      <point x="645" y="1292" type="line"/>
      <point x="1315" y="1292" type="line"/>
    </contour>
    <contour>
      <point x="-133" y="-360" type="line"/>
      <point x="-25" y="-360" type="line"/>
      <point x="53" y="0" type="line"/>
      <point x="1269" y="0" type="line"/>
      <point x="1191" y="-360" type="line"/>
      <point x="1299" y="-360" type="line"/>
      <point x="1399" y="108" type="line"/>
      <point x="149" y="108" type="line"/>
      <point x="73" y="82" type="line"/>
      <point x="-35" y="92" type="line"/>
    </contour>
  </outline>
</glyph>
<glyph name="Ka-cy" format="2">
  <advance width="1316"/>
  <unicode hex="041A"/>
  <anchor x="1032" y="0" name="descender"/>
  <anchor x="810" y="1400" name="top"/>
  <outline>
    <contour>
      <point x="980" y="0" type="line"/>
      <point x="1124" y="0" type="line"/>
      <point x="690" y="752" type="line"/>
      <point x="1330" y="1400" type="line"/>
      <point x="1186" y="1400" type="line"/>
      <point x="548" y="758" type="line"/>
    </contour>
    <contour>
      <point x="100" y="0" type="line"/>
      <point x="216" y="0" type="line"/>
      <point x="364" y="698" type="line"/>
      <point x="618" y="698" type="line"/>
      <point x="640" y="806" type="line"/>
      <point x="386" y="806" type="line"/>
      <point x="512" y="1400" type="line"/>
      <point x="396" y="1400" type="line"/>
    </contour>
  </outline>
</glyph>
<glyph name="El-cy" format="2">
  <advance width="1458"/>
  <unicode hex="041B"/>
  <outline>
    <contour>
      <point x="20" y="-20" type="line"/>
      <point x="288" y="54"/>
      <point x="404" y="172"/>
      <point x="572" y="962" type="curve" smooth="yes"/>
      <point x="642" y="1292" type="line"/>
      <point x="1312" y="1292" type="line"/>
      <point x="1040" y="0" type="line"/>
      <point x="1156" y="0" type="line"/>
      <point x="1452" y="1400" type="line"/>
      <point x="550" y="1400" type="line"/>
      <point x="458" y="962" type="line" smooth="yes"/>
      <point x="300" y="242"/>
      <point x="224" y="144"/>
      <point x="-20" y="88" type="curve"/>
    </contour>
  </outline>
</glyph>
<glyph name="Hardsign-cy" format="2">
  <advance width="1503"/>
  <unicode hex="042A"/>
  <anchor x="740" y="1400" name="top"/>
  <outline>
    <contour>
      <point x="658" y="1292" type="line"/>
      <point x="798" y="1400" type="line"/>
      <point x="266" y="1400" type="line"/>
      <point x="244" y="1292" type="line"/>
    </contour>
    <contour>
      <point x="384" y="0" type="line"/>
      <point x="886" y="0" type="line" smooth="yes"/>
      <point x="1192" y="0"/>
      <point x="1392" y="180"/>
      <point x="1394" y="434" type="curve" smooth="yes"/>
      <point x="1396" y="656"/>
      <point x="1228" y="796"/>
      <point x="950" y="796" type="curve" smooth="yes"/>
      <point x="668" y="796" type="line"/>
      <point x="798" y="1400" type="line"/>
      <point x="680" y="1400" type="line"/>
    </contour>
    <contour>
      <point x="522" y="108" type="line"/>
      <point x="646" y="688" type="line"/>
      <point x="936" y="688" type="line" smooth="yes"/>
      <point x="1172" y="688"/>
      <point x="1282" y="596"/>
      <point x="1280" y="420" type="curve" smooth="yes"/>
      <point x="1278" y="216"/>
      <point x="1136" y="108"/>
      <point x="890" y="108" type="curve" smooth="yes"/>
    </contour>
  </outline>
</glyph>
<glyph name="be-cy" format="2">
  <advance width="1191"/>
  <unicode hex="0431"/>
  <outline>
    <contour>
      <point x="568" y="-30" type="curve" smooth="yes"/>
      <point x="862" y="-30"/>
      <point x="1098" y="234"/>
      <point x="1100" y="534" type="curve" smooth="yes"/>
      <point x="1102" y="810"/>
      <point x="918" y="990"/>
      <point x="684" y="990" type="curve" smooth="yes"/>
      <point x="536" y="990"/>
      <point x="384" y="920"/>
      <point x="272" y="776" type="curve"/>
      <point x="362" y="1112"/>
      <point x="504" y="1206"/>
      <point x="734" y="1256" type="curve" smooth="yes"/>
      <point x="1186" y="1358" type="line"/>
      <point x="1190" y="1470" type="line"/>
      <point x="712" y="1368" type="line" smooth="yes"/>
      <point x="404" y="1302"/>
      <point x="238" y="1098"/>
      <point x="160" y="782" type="curve" smooth="yes"/>
      <point x="54" y="344"/>
      <point x="174" y="-30"/>
    </contour>
    <contour>
      <point x="584" y="78" type="curve" smooth="yes"/>
      <point x="384" y="78"/>
      <point x="256" y="212"/>
      <point x="258" y="436" type="curve" smooth="yes"/>
      <point x="260" y="692"/>
      <point x="424" y="882"/>
      <point x="648" y="882" type="curve" smooth="yes"/>
      <point x="846" y="882"/>
      <point x="980" y="750"/>
      <point x="978" y="530" type="curve" smooth="yes"/>
      <point x="976" y="290"/>
      <point x="818" y="78"/>
    </contour>
  </outline>
</glyph>
<glyph name="zhe-cy" format="2">
  <advance width="1466"/>
  <unicode hex="0436"/>
  <anchor x="1224" y="0" name="descender"/>
  <anchor x="832" y="960" name="top"/>
  <outline>
    <contour>
      <point x="576" y="0" type="line"/>
      <point x="688" y="0" type="line"/>
      <point x="782" y="460" type="line"/>
      <point x="1040" y="460" type="line"/>
      <point x="1064" y="564" type="line"/>
      <point x="806" y="564" type="line"/>
      <point x="888" y="960" type="line"/>
      <point x="776" y="960" type="line"/>
      <point x="694" y="564" type="line"/>
      <point x="438" y="564" type="line"/>
      <point x="414" y="460" type="line"/>
      <point x="670" y="460" type="line"/>
    </contour>
    <contour>
      <point x="-42" y="0" type="line"/>
      <point x="96" y="0" type="line"/>
      <point x="510" y="516" type="line"/>
      <point x="340" y="960" type="line"/>
      <point x="220" y="960" type="line"/>
      <point x="388" y="522" type="line"/>
    </contour>
    <contour>
      <point x="1170" y="0" type="line"/>
      <point x="1304" y="0" type="line"/>
      <point x="1092" y="512" type="line"/>
      <point x="1444" y="960" type="line"/>
      <point x="1318" y="960" type="line"/>
      <point x="972" y="516" type="line"/>
    </contour>
  </outline>
</glyph>
<glyph name="ze-cy" format="2">
  <advance width="991"/>
  <unicode hex="0437"/>
  <anchor x="365" y="0" name="bottom"/>
  <anchor x="557" y="960" name="top"/>
  <outline>
    <contour>
      <point x="409" y="-20" type="curve" smooth="yes"/>
      <point x="643" y="-20"/>
      <point x="843" y="86"/>
      <point x="843" y="284" type="curve" smooth="yes"/>
      <point x="843" y="382"/>
      <point x="777" y="458"/>
      <point x="653" y="498" type="curve"/>
      <point x="807" y="518"/>
      <point x="901" y="626"/>
      <point x="901" y="738" type="curve" smooth="yes"/>
      <point x="901" y="918"/>
      <point x="709" y="990"/>
      <point x="517" y="990" type="curve" smooth="yes"/>
      <point x="381" y="990"/>
      <point x="249" y="958"/>
      <point x="165" y="898" type="curve"/>
      <point x="203" y="806" type="line"/>
      <point x="293" y="862"/>
      <point x="401" y="886"/>
      <point x="517" y="886" type="curve" smooth="yes"/>
      <point x="647" y="886"/>
      <point x="787" y="846"/>
      <point x="787" y="730" type="curve" smooth="yes"/>
      <point x="787" y="588"/>
      <point x="651" y="562"/>
      <point x="423" y="562" type="curve" smooth="yes"/>
      <point x="247" y="562" type="line"/>
      <point x="225" y="458" type="line"/>
      <point x="403" y="458" type="line" smooth="yes"/>
      <point x="615" y="458"/>
      <point x="731" y="402"/>
      <point x="731" y="278" type="curve" smooth="yes"/>
      <point x="731" y="148"/>
      <point x="603" y="84"/>
      <point x="429" y="84" type="curve" smooth="yes"/>
      <point x="299" y="84"/>
      <point x="167" y="118"/>
      <point x="79" y="202" type="curve"/>
      <point x="-3" y="116" type="line"/>
      <point x="99" y="22"/>
      <point x="255" y="-20"/>
    </contour>
  </outline>
</glyph>
<glyph name="ii-cy" format="2">
  <advance width="1178"/>
  <unicode hex="0438"/>
  <anchor x="488" y="0" name="bottom"/>
  <anchor x="692" y="960" name="top"/>
  <outline>
    <contour>
      <point x="72" y="0" type="line"/>
      <point x="156" y="0" type="line"/>
      <point x="954" y="776" type="line"/>
      <point x="794" y="0" type="line"/>
      <point x="906" y="0" type="line"/>
      <point x="1106" y="960" type="line"/>
      <point x="1016" y="960" type="line"/>
      <point x="226" y="204" type="line"/>
      <point x="384" y="960" type="line"/>
      <point x="272" y="960" type="line"/>
    </contour>
  </outline>
</glyph>
<glyph name="el-cy" format="2">
  <advance width="1154"/>
  <unicode hex="043B"/>
  <outline>
    <contour>
      <point x="14" y="-10" type="line"/>
      <point x="236" y="64"/>
      <point x="332" y="232"/>
      <point x="424" y="664" type="curve" smooth="yes"/>
      <point x="464" y="856" type="line"/>
      <point x="950" y="856" type="line"/>
      <point x="770" y="0" type="line"/>
      <point x="882" y="0" type="line"/>
      <point x="1084" y="960" type="line"/>
      <point x="374" y="960" type="line"/>
      <point x="312" y="664" type="line" smooth="yes"/>
      <point x="234" y="290"/>
      <point x="180" y="150"/>
      <point x="-30" y="98" type="curve"/>
    </contour>
  </outline>
</glyph>
<glyph name="sha-cy" format="2">
  <advance width="1708"/>
  <unicode hex="0448"/>
  <anchor x="1436" y="0" name="descender"/>
  <outline>
    <contour>
      <point x="68" y="0" type="line"/>
      <point x="1436" y="0" type="line"/>
      <point x="1640" y="960" type="line"/>
      <point x="1528" y="960" type="line"/>
      <point x="1346" y="104" type="line"/>
      <point x="830" y="104" type="line"/>
      <point x="1012" y="960" type="line"/>
      <point x="900" y="960" type="line"/>
      <point x="718" y="104" type="line"/>
      <point x="202" y="104" type="line"/>
      <point x="384" y="960" type="line"/>
      <point x="272" y="960" type="line"/>
    </contour>
  </outline>
</glyph>
<glyph name="yeru-cy" format="2">
  <advance width="1350"/>
  <unicode hex="044B"/>
  <anchor x="576" y="0" name="bottom"/>
  <anchor x="778" y="960" name="top"/>
  <outline>
    <contour>
      <point x="68" y="0" type="line"/>
      <point x="478" y="0" type="line" smooth="yes"/>
      <point x="696" y="0"/>
      <point x="870" y="126"/>
      <point x="870" y="324" type="curve" smooth="yes"/>
      <point x="870" y="514"/>
      <point x="746" y="616"/>
      <point x="532" y="616" type="curve" smooth="yes"/>
      <point x="284" y="616" type="line"/>
      <point x="260" y="512" type="line"/>
      <point x="520" y="512" type="line" smooth="yes"/>
      <point x="680" y="512"/>
      <point x="750" y="450"/>
      <point x="750" y="324" type="curve" smooth="yes"/>
      <point x="750" y="190"/>
      <point x="648" y="106"/>
      <point x="484" y="106" type="curve" smooth="yes"/>
      <point x="202" y="106" type="line"/>
      <point x="384" y="960" type="line"/>
      <point x="272" y="960" type="line"/>
    </contour>
    <contour>
      <point x="966" y="0" type="line"/>
      <point x="1078" y="0" type="line"/>
      <point x="1282" y="960" type="line"/>
      <point x="1170" y="960" type="line"/>
    </contour>
  </outline>
</glyph>
<glyph name="lje-cy" format="2">
  <advance width="1670"/>
  <unicode hex="0459"/>
  <outline>
    <contour>
      <point x="14" y="-10" type="line"/>
      <point x="236" y="64"/>
      <point x="332" y="232"/>
      <point x="424" y="664" type="curve" smooth="yes"/>
      <point x="464" y="856" type="line"/>
      <point x="910" y="856" type="line"/>
      <point x="1044" y="960" type="line"/>
      <point x="374" y="960" type="line"/>
      <point x="312" y="664" type="line" smooth="yes"/>
      <point x="236" y="288"/>
      <point x="180" y="150"/>
      <point x="-30" y="98" type="curve"/>
    </contour>
    <contour>
      <point x="728" y="0" type="line"/>
      <point x="1148" y="0" type="line" smooth="yes"/>
      <point x="1366" y="0"/>
      <point x="1540" y="126"/>
      <point x="1540" y="324" type="curve" smooth="yes"/>
      <point x="1540" y="514"/>
      <point x="1416" y="616"/>
      <point x="1202" y="616" type="curve" smooth="yes"/>
      <point x="944" y="616" type="line"/>
      <point x="920" y="512" type="line"/>
      <point x="1190" y="512" type="line" smooth="yes"/>
      <point x="1350" y="512"/>
      <point x="1420" y="450"/>
      <point x="1420" y="324" type="curve" smooth="yes"/>
      <point x="1420" y="190"/>
      <point x="1318" y="106"/>
      <point x="1154" y="106" type="curve" smooth="yes"/>
      <point x="862" y="106" type="line"/>
      <point x="1044" y="960" type="line"/>
      <point x="932" y="960" type="line"/>
    </contour>
  </outline>
</glyph>
<glyph name="nje-cy" format="2">
  <advance width="1684"/>
  <unicode hex="045A"/>
  <outline>
    <contour>
      <point x="68" y="0" type="line"/>
      <point x="180" y="0" type="line"/>
      <point x="384" y="960" type="line"/>
      <point x="272" y="960" type="line"/>
    </contour>
    <contour>
      <point x="762" y="0" type="line"/>
      <point x="1182" y="0" type="line" smooth="yes"/>
      <point x="1386" y="0"/>
      <point x="1550" y="118"/>
      <point x="1550" y="304" type="curve" smooth="yes"/>
      <point x="1550" y="480"/>
      <point x="1430" y="576"/>
      <point x="1228" y="576" type="curve" smooth="yes"/>
      <point x="268" y="576" type="line"/>
      <point x="244" y="472" type="line"/>
      <point x="894" y="472" type="line"/>
      <point x="944" y="472" type="line"/>
      <point x="1216" y="472" type="line" smooth="yes"/>
      <point x="1364" y="472"/>
      <point x="1428" y="416"/>
      <point x="1430" y="304" type="curve" smooth="yes"/>
      <point x="1430" y="182"/>
      <point x="1338" y="106"/>
      <point x="1188" y="106" type="curve" smooth="yes"/>
      <point x="896" y="106" type="line"/>
      <point x="1078" y="960" type="line"/>
      <point x="966" y="960" type="line"/>
    </contour>
  </outline>
</glyph>
<glyph name="Izhitsa-cy" format="2">
  <advance width="1314"/>
  <unicode hex="0474"/>
  <outline>
    <contour>
      <point x="484" y="0" type="line"/>
      <point x="582" y="0" type="line"/>
      <point x="1146" y="980" type="line" smooth="yes"/>
      <point x="1258" y="1176"/>
      <point x="1344" y="1250"/>
      <point x="1530" y="1310" type="curve"/>
      <point x="1494" y="1420" type="line"/>
      <point x="1272" y="1348"/>
      <point x="1176" y="1266"/>
      <point x="1022" y="986" type="curve" smooth="yes"/>
      <point x="570" y="178" type="line"/>
      <point x="350" y="1400" type="line"/>
      <point x="226" y="1400" type="line"/>
    </contour>
  </outline>
</glyph>
<glyph name="izhitsa-cy" format="2">
  <advance width="1042"/>
  <unicode hex="0475"/>
  <outline>
    <contour>
      <point x="324" y="0" type="line"/>
      <point x="446" y="0" type="line"/>
      <point x="764" y="534" type="line" smooth="yes"/>
      <point x="894" y="754"/>
      <point x="976" y="832"/>
      <point x="1084" y="856" type="curve"/>
      <point x="1068" y="970" type="line"/>
      <point x="930" y="946"/>
      <point x="828" y="862"/>
      <point x="680" y="604" type="curve" smooth="yes"/>
      <point x="414" y="138" type="line"/>
      <point x="274" y="960" type="line"/>
      <point x="144" y="960" type="line"/>
    </contour>
  </outline>
</glyph>
<glyph name="Gheupturn-cy" format="2">
  <advance width="1000"/>
  <unicode hex="0490"/>
  <anchor x="486" y="722" name="bar"/>
  <anchor x="216" y="0" name="descender"/>
  <anchor x="760" y="1400" name="top"/>
  <outline>
    <contour>
      <point x="994" y="1292" type="line"/>
      <point x="1102" y="1292" type="line"/>
      <point x="1200" y="1760" type="line"/>
      <point x="1092" y="1760" type="line"/>
    </contour>
    <component base="Ge-cy"/>
  </outline>
</glyph>
<glyph name="gheupturn-cy" format="2">
  <advance width="830"/>
  <unicode hex="0491"/>
  <anchor x="344" y="486" name="bar"/>
  <anchor x="180" y="0" name="descender"/>
  <anchor x="574" y="960" name="top"/>
  <outline>
    <contour>
      <point x="748" y="856" type="line"/>
      <point x="852" y="856" type="line"/>
      <point x="936" y="1260" type="line"/>
      <point x="832" y="1260" type="line"/>
    </contour>
    <component base="ge-cy"/>
  </outline>
</glyph>
<glyph name="Kabashkir-cy" format="2">
  <advance width="1600"/>
  <unicode hex="04A0"/>
  <anchor x="1316" y="0" name="descender"/>
  <anchor x="1094" y="1400" name="top"/>
  <outline>
    <contour>
      <point x="658" y="1292" type="line"/>
      <point x="796" y="1400" type="line"/>
      <point x="266" y="1400" type="line"/>
      <point x="244" y="1292" type="line"/>
    </contour>
    <component base="Ka-cy" xOffset="284"/>
  </outline>
</glyph>
<glyph name="chekhakassian-cy" format="2">
  <advance width="1036"/>
  <unicode hex="04CC"/>
  <anchor x="674" y="0" name="_descender"/>
  <anchor x="468" y="450" name="center"/>
  <anchor x="764" y="0" name="descender"/>
  <anchor x="652" y="0" name="descender_alt"/>
  <anchor x="576" y="960" name="top"/>
  <outline>
    <contour>
      <point x="376" y="-300" type="line"/>
      <point x="480" y="-300" type="line"/>
      <point x="542" y="0" type="line"/>
      <point x="754" y="0" type="line"/>
      <point x="776" y="104" type="line"/>
      <point x="460" y="104" type="line"/>
    </contour>
    <component base="che-cy"/>
  </outline>
</glyph>
<glyph name="obarred-cy" format="2">
  <advance width="1184"/>
  <unicode hex="04E9"/>
  <outline>
    <contour>
      <point x="152" y="440" type="line"/>
      <point x="1022" y="440" type="line"/>
      <point x="1042" y="544" type="line"/>
      <point x="172" y="544" type="line"/>
    </contour>
    <contour>
      <point x="540" y="-30" type="curve" smooth="yes"/>
      <point x="844" y="-30"/>
      <point x="1104" y="232"/>
      <point x="1104" y="538" type="curve" smooth="yes"/>
      <point x="1104" y="786"/>
      <point x="922" y="990"/>
      <point x="644" y="990" type="curve" smooth="yes"/>
      <point x="342" y="990"/>
      <point x="80" y="728"/>
      <point x="80" y="424" type="curve" smooth="yes"/>
      <point x="80" y="172"/>
      <point x="262" y="-30"/>
    </contour>
    <contour>
      <point x="554" y="78" type="curve" smooth="yes"/>
      <point x="338" y="78"/>
      <point x="200" y="210"/>
      <point x="200" y="420" type="curve" smooth="yes"/>
      <point x="200" y="672"/>
      <point x="372" y="882"/>
      <point x="630" y="882" type="curve" smooth="yes"/>
      <point x="844" y="882"/>
      <point x="984" y="750"/>
      <point x="984" y="540" type="curve" smooth="yes"/>
      <point x="984" y="288"/>
      <point x="812" y="78"/>
    </contour>
  </outline>
</glyph>
<glyph name="Germandbls" format="2">
  <advance width="1391"/>
  <unicode hex="1E9E"/>
  <outline>
    <contour>
      <point x="793" y="-28" type="curve" smooth="yes"/>
      <point x="1045" y="-28"/>
      <point x="1275" y="86"/>
      <point x="1275" y="292" type="curve" smooth="yes"/>
      <point x="1275" y="540"/>
      <point x="943" y="602"/>
      <point x="943" y="792" type="curve" smooth="yes"/>
      <point x="943" y="926"/>
      <point x="1101" y="1048"/>
      <point x="1309" y="1218" type="curve"/>
      <point x="1329" y="1298" type="line"/>
      <point x="1189" y="1386"/>
      <point x="1051" y="1430"/>
      <point x="883" y="1430" type="curve" smooth="yes"/>
      <point x="593" y="1430"/>
      <point x="357" y="1226"/>
      <point x="289" y="908" type="curve" smooth="yes"/>
      <point x="97" y="0" type="line"/>
      <point x="213" y="0" type="line"/>
      <point x="405" y="908" type="line" smooth="yes"/>
      <point x="461" y="1172"/>
      <point x="631" y="1320"/>
      <point x="865" y="1320" type="curve" smooth="yes"/>
      <point x="1015" y="1320"/>
      <point x="1077" y="1290"/>
      <point x="1177" y="1242" type="curve"/>
      <point x="931" y="1030"/>
      <point x="811" y="942"/>
      <point x="811" y="768" type="curve" smooth="yes"/>
      <point x="811" y="522"/>
      <point x="1145" y="494"/>
      <point x="1145" y="292" type="curve" smooth="yes"/>
      <point x="1145" y="154"/>
      <point x="993" y="78"/>
      <point x="817" y="78" type="curve" smooth="yes"/>
      <point x="735" y="78"/>
      <point x="655" y="94"/>
      <point x="595" y="116" type="curve"/>
      <point x="534" y="18" type="line"/>
      <point x="642" y="-20"/>
      <point x="735" y="-28"/>
    </contour>
  </outline>
</glyph>
<glyph name="quoteleft" format="2">
  <advance width="505"/>
  <unicode hex="2018"/>
  <outline>
    <contour>
      <point x="386" y="996" type="curve" smooth="yes"/>
      <point x="448" y="996"/>
      <point x="494" y="1037"/>
      <point x="494" y="1099" type="curve" smooth="yes"/>
      <point x="494" y="1150"/>
      <point x="456" y="1184"/>
      <point x="398" y="1187" type="curve"/>
      <point x="422" y="1238"/>
      <point x="496" y="1303"/>
      <point x="603" y="1351" type="curve"/>
      <point x="560" y="1420" type="line"/>
      <point x="416" y="1356"/>
      <point x="282" y="1246"/>
      <point x="282" y="1106" type="curve" smooth="yes"/>
      <point x="282" y="1034"/>
      <point x="324" y="996"/>
    </contour>
  </outline>
</glyph>
<glyph name="bullet" format="2">
  <advance width="1000"/>
  <unicode hex="2022"/>
  <outline>
    <contour>
      <point x="514" y="396" type="curve" smooth="yes"/>
      <point x="696" y="396"/>
      <point x="846" y="540"/>
      <point x="846" y="720" type="curve" smooth="yes"/>
      <point x="846" y="870"/>
      <point x="738" y="980"/>
      <point x="574" y="980" type="curve" smooth="yes"/>
      <point x="394" y="980"/>
      <point x="242" y="842"/>
      <point x="242" y="654" type="curve" smooth="yes"/>
      <point x="242" y="506"/>
      <point x="352" y="396"/>
    </contour>
  </outline>
</glyph>
<glyph name="minute" format="2">
  <advance width="420"/>
  <unicode hex="2032"/>
  <outline>
    <contour>
      <point x="226" y="992" type="line"/>
      <point x="314" y="992" type="line"/>
      <point x="514" y="1400" type="line"/>
      <point x="404" y="1400" type="line"/>
    </contour>
  </outline>
</glyph>
<glyph name="guilsinglleft" format="2">
  <advance width="574"/>
  <unicode hex="2039"/>
  <outline>
    <contour>
      <point x="330" y="110" type="line"/>
      <point x="405" y="162" type="line"/>
      <point x="186" y="492" type="line"/>
      <point x="538" y="825" type="line"/>
      <point x="481" y="886" type="line"/>
      <point x="64" y="498" type="line"/>
    </contour>
  </outline>
</glyph>
<glyph name="guilsinglright" format="2">
  <advance width="573"/>
  <unicode hex="203A"/>
  <outline>
    <contour>
      <point x="100" y="110" type="line"/>
      <point x="517" y="498" type="line"/>
      <point x="251" y="886" type="line"/>
      <point x="176" y="834" type="line"/>
      <point x="395" y="504" type="line"/>
      <point x="43" y="171" type="line"/>
    </contour>
  </outline>
</glyph>
<glyph name="fraction" format="2">
  <advance width="388"/>
  <unicode hex="2044"/>
  <outline>
    <contour>
      <point x="-268" y="-30" type="line"/>
      <point x="816" y="1382" type="line"/>
      <point x="754" y="1430" type="line"/>
      <point x="-334" y="20" type="line"/>
    </contour>
  </outline>
</glyph>
<glyph name="commercialMinusSign" format="2">
  <advance width="1296"/>
  <unicode hex="2052"/>
  <outline>
    <contour>
      <point x="184" y="-30" type="line"/>
      <point x="1268" y="1382" type="line"/>
      <point x="1206" y="1430" type="line"/>
      <point x="118" y="20" type="line"/>
    </contour>
    <contour>
      <point x="908" y="-20" type="curve" smooth="yes"/>
      <point x="974" y="-20"/>
      <point x="1032" y="28"/>
      <point x="1032" y="96" type="curve" smooth="yes"/>
      <point x="1032" y="150"/>
      <point x="992" y="188"/>
      <point x="934" y="188" type="curve" smooth="yes"/>
      <point x="868" y="188"/>
      <point x="810" y="140"/>
      <point x="810" y="72" type="curve" smooth="yes"/>
      <point x="810" y="18"/>
      <point x="850" y="-20"/>
    </contour>
    <contour>
      <point x="456" y="1212" type="curve" smooth="yes"/>
      <point x="522" y="1212"/>
      <point x="580" y="1260"/>
      <point x="580" y="1328" type="curve" smooth="yes"/>
      <point x="580" y="1382"/>
      <point x="540" y="1420"/>
      <point x="482" y="1420" type="curve" smooth="yes"/>
      <point x="416" y="1420"/>
      <point x="358" y="1372"/>
      <point x="358" y="1304" type="curve" smooth="yes"/>
      <point x="358" y="1250"/>
      <point x="398" y="1212"/>
    </contour>
  </outline>
</glyph>
<glyph name="lira" format="2">
  <advance width="1296"/>
  <unicode hex="20A4"/>
  <outline>
    <contour>
      <point x="100" y="0" type="line"/>
      <point x="1052" y="0" type="line"/>
      <point x="1074" y="104" type="line"/>
      <point x="352" y="104" type="line"/>
      <point x="526" y="208"/>
      <point x="566" y="332"/>
      <point x="566" y="468" type="curve" smooth="yes"/>
      <point x="566" y="632"/>
      <point x="556" y="816"/>
      <point x="556" y="982" type="curve" smooth="yes"/>
      <point x="556" y="1196"/>
      <point x="682" y="1324"/>
      <point x="888" y="1324" type="curve" smooth="yes"/>
      <point x="1016" y="1324"/>
      <point x="1118" y="1288"/>
      <point x="1202" y="1204" type="curve"/>
      <point x="1274" y="1288" type="line"/>
      <point x="1186" y="1374"/>
      <point x="1056" y="1430"/>
      <point x="892" y="1430" type="curve" smooth="yes"/>
      <point x="632" y="1430"/>
      <point x="440" y="1254"/>
      <point x="440" y="996" type="curve" smooth="yes"/>
      <point x="440" y="816"/>
      <point x="468" y="656"/>
      <point x="468" y="486" type="curve" smooth="yes"/>
      <point x="468" y="276"/>
      <point x="358" y="176"/>
      <point x="122" y="106" type="curve"/>
    </contour>
    <contour>
      <point x="184" y="496" type="line"/>
      <point x="1022" y="496" type="line"/>
      <point x="1042" y="596" type="line"/>
      <point x="204" y="596" type="line"/>
    </contour>
    <contour>
      <point x="248" y="804" type="line"/>
      <point x="1086" y="804" type="line"/>
      <point x="1108" y="904" type="line"/>
      <point x="270" y="904" type="line"/>
    </contour>
  </outline>
</glyph>
<glyph name="peseta" format="2">
  <advance width="1296"/>
  <unicode hex="20A7"/>
  <outline>
    <contour>
      <point x="104" y="0" type="line"/>
      <point x="218" y="0" type="line"/>
      <point x="346" y="606" type="line"/>
      <point x="662" y="606" type="line" smooth="yes"/>
      <point x="964" y="606"/>
      <point x="1164" y="768"/>
      <point x="1164" y="1052" type="curve" smooth="yes"/>
      <point x="1164" y="1266"/>
      <point x="1010" y="1400"/>
      <point x="792" y="1400" type="curve" smooth="yes"/>
      <point x="400" y="1400" type="line"/>
    </contour>
    <contour>
      <point x="368" y="710" type="line"/>
      <point x="492" y="1296" type="line"/>
      <point x="780" y="1296" type="line" smooth="yes"/>
      <point x="946" y="1296"/>
      <point x="1048" y="1196"/>
      <point x="1048" y="1038" type="curve" smooth="yes"/>
      <point x="1048" y="836"/>
      <point x="916" y="710"/>
      <point x="694" y="710" type="curve" smooth="yes"/>
    </contour>
    <component base="_part.currencyBarHorizontalSingle" xOffset="62" yOffset="310"/>
  </outline>
</glyph>
<glyph name="dong" format="2">
  <advance width="1296"/>
  <unicode hex="20AB"/>
  <anchor x="1201" y="1204" name="bar"/>
  <anchor x="1363" y="1440" name="caron"/>
  <outline>
    <contour>
      <point x="-4" y="-282" type="line"/>
      <point x="996" y="-282" type="line"/>
      <point x="1016" y="-190" type="line"/>
      <point x="16" y="-190" type="line"/>
    </contour>
    <component base="dcroat" xOffset="68"/>
  </outline>
</glyph>
<glyph name="tenge" format="2">
  <advance width="1296"/>
  <unicode hex="20B8"/>
  <outline>
    <contour>
      <point x="490" y="0" type="line"/>
      <point x="606" y="0" type="line"/>
      <point x="816" y="992" type="line"/>
      <point x="1230" y="992" type="line"/>
      <point x="1250" y="1092" type="line"/>
      <point x="306" y="1092" type="line"/>
      <point x="286" y="992" type="line"/>
      <point x="700" y="992" type="line"/>
    </contour>
    <contour>
      <point x="350" y="1300" type="line"/>
      <point x="1294" y="1300" type="line"/>
      <point x="1316" y="1400" type="line"/>
      <point x="372" y="1400" type="line"/>
    </contour>
  </outline>
</glyph>
<glyph name="liraTurkish" format="2">
  <advance width="1296"/>
  <unicode hex="20BA"/>
  <outline>
    <contour>
      <point x="510" y="-30" type="curve" smooth="yes"/>
      <point x="870" y="-30"/>
      <point x="1134" y="178"/>
      <point x="1160" y="562" type="curve"/>
      <point x="1054" y="540" type="line"/>
      <point x="1026" y="240"/>
      <point x="830" y="78"/>
      <point x="544" y="78" type="curve" smooth="yes"/>
      <point x="484" y="78"/>
      <point x="370" y="92"/>
      <point x="304" y="106" type="curve"/>
      <point x="324" y="50" type="line"/>
      <point x="612" y="1400" type="line"/>
      <point x="496" y="1400" type="line"/>
      <point x="202" y="16" type="line"/>
      <point x="298" y="-16"/>
      <point x="390" y="-30"/>
    </contour>
    <contour>
      <point x="100" y="368" type="line"/>
      <point x="368" y="492" type="line"/>
      <point x="366" y="482" type="line"/>
      <point x="1034" y="796" type="line"/>
      <point x="1058" y="896" type="line"/>
      <point x="378" y="580" type="line"/>
      <point x="380" y="590" type="line"/>
      <point x="124" y="468" type="line"/>
    </contour>
    <contour>
      <point x="164" y="666" type="line"/>
      <point x="432" y="790" type="line"/>
      <point x="428" y="780" type="line"/>
      <point x="1100" y="1094" type="line"/>
      <point x="1120" y="1194" type="line"/>
      <point x="442" y="878" type="line"/>
      <point x="444" y="888" type="line"/>
      <point x="184" y="766" type="line"/>
    </contour>
  </outline>
</glyph>
<glyph name="trademark" format="2">
  <advance width="1872"/>
  <unicode hex="2122"/>
  <anchor x="474" y="984" name="bar"/>
  <anchor x="384" y="560" name="bottom"/>
  <anchor x="562" y="1400" name="top"/>
  <outline>
    <contour>
      <point x="332" y="560" type="line"/>
      <point x="438" y="560" type="line"/>
      <point x="596" y="1304" type="line"/>
      <point x="850" y="1304" type="line"/>
      <point x="870" y="1400" type="line"/>
      <point x="254" y="1400" type="line"/>
      <point x="236" y="1304" type="line"/>
      <point x="490" y="1304" type="line"/>
    </contour>
    <contour>
      <point x="854" y="560" type="line"/>
      <point x="958" y="560" type="line"/>
      <point x="1098" y="1218" type="line"/>
      <point x="1300" y="752" type="line"/>
      <point x="1386" y="752" type="line"/>
      <point x="1784" y="1202" type="line"/>
      <point x="1646" y="560" type="line"/>
      <point x="1750" y="560" type="line"/>
      <point x="1926" y="1400" type="line"/>
      <point x="1830" y="1400" type="line"/>
      <point x="1364" y="868" type="line"/>
      <point x="1134" y="1400" type="line"/>
      <point x="1032" y="1400" type="line"/>
    </contour>
  </outline>
</glyph>
<glyph name="downArrow" format="2">
  <advance width="1800"/>
  <unicode hex="2193"/>
  <outline>
    <contour>
      <point x="994" y="-162" type="line"/>
      <point x="1556" y="400" type="line"/>
      <point x="1488" y="468" type="line"/>
      <point x="1044" y="22" type="line"/>
      <point x="1042" y="1520" type="line"/>
      <point x="946" y="1520" type="line"/>
      <point x="944" y="22" type="line"/>
      <point x="500" y="468" type="line"/>
      <point x="432" y="400" type="line"/>
    </contour>
  </outline>
</glyph>
<glyph name="northWestArrow" format="2">
  <advance width="2197"/>
  <unicode hex="2196"/>
  <outline>
    <contour>
      <point x="1709" y="8" type="line"/>
      <point x="1777" y="76" type="line"/>
      <point x="549" y="1304" type="line"/>
      <point x="1179" y="1304" type="line"/>
      <point x="1179" y="1400" type="line"/>
      <point x="385" y="1400" type="line"/>
      <point x="387" y="606" type="line"/>
      <point x="481" y="606" type="line"/>
      <point x="481" y="1236" type="line"/>
    </contour>
  </outline>
</glyph>
<glyph name="southWestArrow" format="2">
  <advance width="1801"/>
  <unicode hex="2199"/>
  <outline>
    <contour>
      <point x="254" y="0" type="line"/>
      <point x="1048" y="0" type="line"/>
      <point x="1048" y="96" type="line"/>
      <point x="418" y="96" type="line"/>
      <point x="1646" y="1324" type="line"/>
      <point x="1578" y="1392" type="line"/>
      <point x="350" y="164" type="line"/>
      <point x="350" y="794" type="line"/>
      <point x="256" y="794" type="line"/>
    </contour>
  </outline>
</glyph>
<glyph name="divisionslash" format="2">
  <advance width="1296"/>
  <unicode hex="2215"/>
  <outline>
    <contour>
      <point x="187" y="-30" type="line"/>
      <point x="1271" y="1382" type="line"/>
      <point x="1209" y="1430" type="line"/>
      <point x="121" y="20" type="line"/>
    </contour>
  </outline>
</glyph>
<glyph name="notequal" format="2">
  <advance width="1296"/>
  <unicode hex="2260"/>
  <outline>
    <contour>
      <point x="382" y="158" type="line"/>
      <point x="1076" y="1120" type="line"/>
      <point x="1002" y="1174" type="line"/>
      <point x="308" y="212" type="line"/>
    </contour>
    <contour>
      <point x="246" y="780" type="line"/>
      <point x="1182" y="780" type="line"/>
      <point x="1202" y="876" type="line"/>
      <point x="266" y="876" type="line"/>
    </contour>
    <contour>
      <point x="174" y="452" type="line"/>
      <point x="1110" y="452" type="line"/>
      <point x="1130" y="548" type="line"/>
      <point x="194" y="548" type="line"/>
    </contour>
  </outline>
</glyph>
<glyph name="leftanglebracket-math" format="2">
  <advance width="1296"/>
  <unicode hex="27E8"/>
  <outline>
    <contour>
      <point x="821" y="-416" type="line"/>
      <point x="905" y="-375" type="line"/>
      <point x="404" y="658" type="line"/>
      <point x="1343" y="1686" type="line"/>
      <point x="1280" y="1744" type="line"/>
      <point x="294" y="664" type="line"/>
    </contour>
  </outline>
</glyph>
<glyph name="_part.Kaverticalstroke-cy" format="2">
  <advance width="1318"/>
  <anchor x="574" y="752" name="center"/>
  <outline>
    <contour>
      <point x="982" y="0" type="line"/>
      <point x="1126" y="0" type="line"/>
      <point x="724" y="744" type="line"/>
      <point x="1332" y="1400" type="line"/>
      <point x="1188" y="1400" type="line"/>
      <point x="584" y="752" type="line"/>
    </contour>
    <contour>
      <point x="100" y="0" type="line"/>
      <point x="216" y="0" type="line"/>
      <point x="364" y="698" type="line"/>
      <point x="650" y="698" type="line"/>
      <point x="672" y="806" type="line"/>
      <point x="386" y="806" type="line"/>
      <point x="512" y="1400" type="line"/>
      <point x="396" y="1400" type="line"/>
    </contour>
  </outline>
</glyph>
<glyph name="_part.Tse-cy" format="2">
  <advance width="1438"/>
  <anchor x="618" y="0" name="bottom"/>
  <anchor x="1136" y="0" name="descender"/>
  <outline>
    <contour>
      <point x="100" y="0" type="line"/>
      <point x="1136" y="0" type="line"/>
      <point x="1432" y="1400" type="line"/>
      <point x="1316" y="1400" type="line"/>
      <point x="1042" y="108" type="line"/>
      <point x="238" y="108" type="line"/>
      <point x="512" y="1400" type="line"/>
      <point x="396" y="1400" type="line"/>
    </contour>
  </outline>
</glyph>
<glyph name="_part.cedi" format="2">
  <advance width="1296"/>
  <anchor x="656" y="0" name="bottom"/>
  <anchor x="880" y="1400" name="top"/>
  <outline>
    <contour>
      <point x="730" y="-30" type="curve" smooth="yes"/>
      <point x="880" y="-30"/>
      <point x="1016" y="8"/>
      <point x="1146" y="94" type="curve"/>
      <point x="1112" y="196" type="line"/>
      <point x="1002" y="112"/>
      <point x="886" y="78"/>
      <point x="762" y="78" type="curve" smooth="yes"/>
      <point x="448" y="78"/>
      <point x="262" y="260"/>
      <point x="262" y="582" type="curve" smooth="yes"/>
      <point x="262" y="976"/>
      <point x="496" y="1324"/>
      <point x="882" y="1324" type="curve" smooth="yes"/>
      <point x="1036" y="1324"/>
      <point x="1154" y="1276"/>
      <point x="1234" y="1178" type="curve"/>
      <point x="1318" y="1264" type="line"/>
      <point x="1232" y="1364"/>
      <point x="1086" y="1430"/>
      <point x="884" y="1430" type="curve" smooth="yes"/>
      <point x="460" y="1430"/>
      <point x="142" y="1024"/>
      <point x="142" y="566" type="curve" smooth="yes"/>
      <point x="142" y="210"/>
      <point x="362" y="-30"/>
    </contour>
  </outline>
</glyph>
<glyph name="_part.currencyBar_Manat" format="2">
  <advance width="1424"/>
  <anchor x="982" y="1400" name="_top"/>
  <outline>
    <contour>
      <point x="668" y="160" type="line"/>
      <point x="768" y="160" type="line"/>
      <point x="1032" y="1400" type="line"/>
      <point x="932" y="1400" type="line"/>
    </contour>
  </outline>
</glyph>
<glyph name="_part.currencyVertDiag" format="2">
  <advance width="1418"/>
  <anchor x="1004" y="1400" name="_top"/>
  <outline>
    <contour>
      <point x="584" y="-160" type="line"/>
      <point x="678" y="-160" type="line"/>
      <point x="1342" y="1560" type="line"/>
      <point x="1244" y="1560" type="line"/>
    </contour>
    <contour>
      <point x="278" y="-160" type="line"/>
      <point x="376" y="-160" type="line"/>
      <point x="1036" y="1560" type="line"/>
      <point x="942" y="1560" type="line"/>
    </contour>
  </outline>
</glyph>
<glyph name="_part.currencyVerticalBar" format="2">
  <advance width="1426"/>
  <anchor x="982" y="1400" name="_top"/>
  <outline>
    <contour>
      <point x="602" y="-160" type="line"/>
      <point x="702" y="-160" type="line"/>
      <point x="1066" y="1560" type="line"/>
      <point x="966" y="1560" type="line"/>
    </contour>
  </outline>
</glyph>
<glyph name="_part.cy-desc-uc-reversed-stem" format="2">
  <advance width="576"/>
  <anchor x="-206" y="0" name="_descender"/>
  <outline>
    <contour>
      <point x="-390" y="-360" type="line"/>
      <point x="-282" y="-360" type="line"/>
      <point x="-206" y="0" type="line"/>
      <point x="-182" y="20" type="line"/>
      <point x="-162" y="108" type="line"/>
      <point x="-290" y="108" type="line"/>
    </contour>
  </outline>
</glyph>
<glyph name="_part.cy-desc-uc-reversed" format="2">
  <advance width="576"/>
  <anchor x="-94" y="0" name="_descender"/>
  <outline>
    <contour>
      <point x="-390" y="-360" type="line"/>
      <point x="-282" y="-360" type="line"/>
      <point x="-206" y="0" type="line"/>
      <point x="-46" y="0" type="line"/>
      <point x="-24" y="108" type="line"/>
      <point x="-290" y="108" type="line"/>
    </contour>
  </outline>
</glyph>
<glyph name="_part.cy-desc-uc" format="2">
  <advance width="576"/>
  <anchor x="-266" y="0" name="_descender"/>
  <outline>
    <contour>
      <point x="-230" y="-360" type="line"/>
      <point x="-122" y="-360" type="line"/>
      <point x="-22" y="108" type="line"/>
      <point x="-290" y="108" type="line"/>
      <point x="-314" y="0" type="line"/>
      <point x="-154" y="0" type="line"/>
    </contour>
  </outline>
</glyph>
<glyph name="_part.cy-descender-lc-center" format="2">
  <advance width="576"/>
  <anchor x="-124" y="0" name="_bottom"/>
  <outline>
    <contour>
      <point x="-238" y="-300" type="line"/>
      <point x="-134" y="-300" type="line"/>
      <point x="-66" y="28" type="line"/>
      <point x="-170" y="28" type="line"/>
    </contour>
  </outline>
</glyph>
<glyph name="_part.cy-descender-uc-center" format="2">
  <advance width="576"/>
  <anchor x="-116" y="0" name="_bottom"/>
  <outline>
    <contour>
      <point x="-248" y="-360" type="line"/>
      <point x="-140" y="-360" type="line"/>
      <point x="-56" y="28" type="line"/>
      <point x="-164" y="28" type="line"/>
    </contour>
  </outline>
</glyph>
<glyph name="_part.dollar" format="2">
  <advance width="1296"/>
  <anchor x="580" y="0" name="bottom"/>
  <anchor x="840" y="1400" name="top"/>
  <outline>
    <contour>
      <point x="604" y="-30" type="curve" smooth="yes"/>
      <point x="898" y="-30"/>
      <point x="1096" y="144"/>
      <point x="1096" y="406" type="curve" smooth="yes"/>
      <point x="1096" y="552"/>
      <point x="1010" y="650"/>
      <point x="832" y="720" type="curve" smooth="yes"/>
      <point x="678" y="780" type="line" smooth="yes"/>
      <point x="490" y="852"/>
      <point x="430" y="926"/>
      <point x="430" y="1028" type="curve" smooth="yes"/>
      <point x="430" y="1208"/>
      <point x="578" y="1326"/>
      <point x="780" y="1326" type="curve" smooth="yes"/>
      <point x="918" y="1326"/>
      <point x="1056" y="1278"/>
      <point x="1140" y="1194" type="curve"/>
      <point x="1222" y="1280" type="line"/>
      <point x="1133" y="1371"/>
      <point x="986" y="1430"/>
      <point x="812" y="1430" type="curve" smooth="yes"/>
      <point x="540" y="1430"/>
      <point x="320" y="1266"/>
      <point x="320" y="1004" type="curve" smooth="yes"/>
      <point x="320" y="860"/>
      <point x="408" y="764"/>
      <point x="594" y="690" type="curve" smooth="yes"/>
      <point x="736" y="634" type="line" smooth="yes"/>
      <point x="922" y="560"/>
      <point x="986" y="482"/>
      <point x="986" y="378" type="curve" smooth="yes"/>
      <point x="986" y="194"/>
      <point x="838" y="78"/>
      <point x="618" y="78" type="curve" smooth="yes"/>
      <point x="458" y="78"/>
      <point x="312" y="130"/>
      <point x="214" y="220" type="curve"/>
      <point x="132" y="129" type="line"/>
      <point x="238" y="28"/>
      <point x="418" y="-30"/>
    </contour>
  </outline>
</glyph>
<glyph name="_part.guarani" format="2">
  <advance width="1296"/>
  <anchor x="858" y="1400" name="top"/>
  <outline>
    <contour>
      <point x="724" y="-30" type="curve" smooth="yes"/>
      <point x="822" y="-30"/>
      <point x="966" y="-4"/>
      <point x="1062" y="48" type="curve"/>
      <point x="1196" y="684" type="line"/>
      <point x="1088" y="684" type="line"/>
      <point x="968" y="116" type="line"/>
      <point x="918" y="92"/>
      <point x="842" y="74"/>
      <point x="756" y="74" type="curve" smooth="yes"/>
      <point x="450" y="74"/>
      <point x="260" y="266"/>
      <point x="260" y="584" type="curve" smooth="yes"/>
      <point x="260" y="968"/>
      <point x="484" y="1322"/>
      <point x="860" y="1322" type="curve" smooth="yes"/>
      <point x="976" y="1322"/>
      <point x="1106" y="1280"/>
      <point x="1200" y="1196" type="curve"/>
      <point x="1270" y="1282" type="line"/>
      <point x="1178" y="1382"/>
      <point x="1030" y="1430"/>
      <point x="878" y="1430" type="curve" smooth="yes"/>
      <point x="446" y="1430"/>
      <point x="140" y="1032"/>
      <point x="140" y="580" type="curve" smooth="yes"/>
      <point x="140" y="222"/>
      <point x="374" y="-30"/>
    </contour>
  </outline>
</glyph>
<glyph name="_part.heng" format="2">
  <advance width="1106"/>
  <anchor x="496" y="1204" name="bar"/>
  <outline>
    <contour>
      <point x="432" y="-270" type="line"/>
      <point x="794" y="-174"/>
      <point x="1016" y="214"/>
      <point x="1016" y="576" type="curve" smooth="yes"/>
      <point x="1016" y="840"/>
      <point x="894" y="990"/>
      <point x="678" y="990" type="curve" smooth="yes"/>
      <point x="556" y="990"/>
      <point x="434" y="924"/>
      <point x="354" y="820" type="curve"/>
      <point x="488" y="1440" type="line"/>
      <point x="376" y="1440" type="line"/>
      <point x="68" y="0" type="line"/>
      <point x="180" y="0" type="line"/>
      <point x="302" y="570" type="line" smooth="yes"/>
      <point x="342" y="760"/>
      <point x="492" y="882"/>
      <point x="664" y="882" type="curve" smooth="yes"/>
      <point x="812" y="882"/>
      <point x="896" y="784"/>
      <point x="896" y="562" type="curve" smooth="yes"/>
      <point x="896" y="249"/>
      <point x="714" y="-73"/>
      <point x="398" y="-169" type="curve"/>
    </contour>
  </outline>
</glyph>
<glyph name="_part.hryvnia" format="2">
  <advance width="1296"/>
  <anchor x="798" y="1400" name="top"/>
  <outline>
    <contour>
      <point x="598" y="-30" type="curve" smooth="yes"/>
      <point x="748" y="-30"/>
      <point x="900" y="6"/>
      <point x="1010" y="70" type="curve"/>
      <point x="968" y="170" type="line"/>
      <point x="858" y="112"/>
      <point x="734" y="78"/>
      <point x="604" y="78" type="curve" smooth="yes"/>
      <point x="422" y="78"/>
      <point x="254" y="152"/>
      <point x="254" y="320" type="curve" smooth="yes"/>
      <point x="254" y="504"/>
      <point x="414" y="576"/>
      <point x="608" y="638" type="curve" smooth="yes"/>
      <point x="764" y="688" type="line" smooth="yes"/>
      <point x="1000" y="764"/>
      <point x="1192" y="864"/>
      <point x="1192" y="1092" type="curve" smooth="yes"/>
      <point x="1192" y="1314"/>
      <point x="978" y="1428"/>
      <point x="732" y="1428" type="curve" smooth="yes"/>
      <point x="592" y="1428"/>
      <point x="464" y="1390"/>
      <point x="370" y="1328" type="curve"/>
      <point x="414" y="1234" type="line"/>
      <point x="504" y="1292"/>
      <point x="620" y="1324"/>
      <point x="732" y="1324" type="curve" smooth="yes"/>
      <point x="918" y="1324"/>
      <point x="1084" y="1236"/>
      <point x="1084" y="1078" type="curve" smooth="yes"/>
      <point x="1084" y="896"/>
      <point x="928" y="842"/>
      <point x="726" y="776" type="curve" smooth="yes"/>
      <point x="556" y="720" type="line" smooth="yes"/>
      <point x="334" y="646"/>
      <point x="144" y="548"/>
      <point x="144" y="312" type="curve" smooth="yes"/>
      <point x="144" y="82"/>
      <point x="348" y="-30"/>
    </contour>
  </outline>
</glyph>
<glyph name="_part.hryvniaBase" format="2">
  <advance width="1225"/>
  <anchor x="774" y="1400" name="top"/>
  <outline>
    <contour>
      <point x="564" y="-30" type="curve" smooth="yes"/>
      <point x="716" y="-30"/>
      <point x="874" y="6"/>
      <point x="986" y="70" type="curve"/>
      <point x="942" y="170" type="line"/>
      <point x="830" y="112"/>
      <point x="704" y="78"/>
      <point x="570" y="78" type="curve" smooth="yes"/>
      <point x="382" y="78"/>
      <point x="208" y="152"/>
      <point x="208" y="322" type="curve" smooth="yes"/>
      <point x="208" y="506"/>
      <point x="372" y="574"/>
      <point x="572" y="638" type="curve" smooth="yes"/>
      <point x="730" y="688" type="line" smooth="yes"/>
      <point x="972" y="764"/>
      <point x="1168" y="864"/>
      <point x="1168" y="1090" type="curve" smooth="yes"/>
      <point x="1168" y="1314"/>
      <point x="946" y="1428"/>
      <point x="694" y="1428" type="curve" smooth="yes"/>
      <point x="552" y="1428"/>
      <point x="420" y="1390"/>
      <point x="324" y="1328" type="curve"/>
      <point x="370" y="1234" type="line"/>
      <point x="462" y="1292"/>
      <point x="580" y="1324"/>
      <point x="696" y="1324" type="curve" smooth="yes"/>
      <point x="888" y="1324"/>
      <point x="1060" y="1236"/>
      <point x="1060" y="1076" type="curve" smooth="yes"/>
      <point x="1060" y="896"/>
      <point x="902" y="844"/>
      <point x="692" y="776" type="curve" smooth="yes"/>
      <point x="518" y="720" type="line" smooth="yes"/>
      <point x="290" y="646"/>
      <point x="98" y="548"/>
      <point x="98" y="314" type="curve" smooth="yes"/>
      <point x="98" y="82"/>
      <point x="308" y="-30"/>
    </contour>
  </outline>
</glyph>
<glyph name="_part.manat" format="2">
  <advance width="1296"/>
  <anchor x="846" y="1400" name="top"/>
  <outline>
    <contour>
      <point x="126" y="0" type="curve"/>
      <point x="240" y="0" type="line"/>
      <point x="240" y="22"/>
      <point x="240" y="44"/>
      <point x="240" y="64" type="curve" smooth="yes"/>
      <point x="240" y="780"/>
      <point x="436" y="1162"/>
      <point x="744" y="1162" type="curve" smooth="yes"/>
      <point x="950" y="1162"/>
      <point x="1070" y="1008"/>
      <point x="1070" y="748" type="curve" smooth="yes"/>
      <point x="1070" y="586"/>
      <point x="1006" y="308"/>
      <point x="900" y="0" type="curve"/>
      <point x="1018" y="0" type="line"/>
      <point x="1122" y="288"/>
      <point x="1186" y="572"/>
      <point x="1186" y="748" type="curve" smooth="yes"/>
      <point x="1186" y="1082"/>
      <point x="1028" y="1270"/>
      <point x="746" y="1270" type="curve" smooth="yes"/>
      <point x="370" y="1270"/>
      <point x="124" y="842"/>
      <point x="124" y="96" type="curve" smooth="yes"/>
      <point x="124" y="66"/>
      <point x="126" y="32"/>
    </contour>
  </outline>
</glyph>
<glyph name="_part.naira" format="2">
  <advance width="1296"/>
  <anchor x="547" y="0" name="bottom"/>
  <anchor x="843" y="1400" name="top"/>
  <outline>
    <contour>
      <point x="95" y="0" type="line"/>
      <point x="209" y="0" type="line"/>
      <point x="463" y="1198" type="line"/>
      <point x="905" y="0" type="line"/>
      <point x="999" y="0" type="line"/>
      <point x="1295" y="1400" type="line"/>
      <point x="1183" y="1400" type="line"/>
      <point x="933" y="218" type="line"/>
      <point x="489" y="1400" type="line"/>
      <point x="391" y="1400" type="line"/>
    </contour>
  </outline>
</glyph>
<glyph name="_part.ogonek" format="2">
  <advance width="2"/>
  <anchor x="-456" y="0" name="_ogonek"/>
  <outline>
    <contour>
      <point x="-695" y="-450" type="curve" smooth="yes"/>
      <point x="-639" y="-450"/>
      <point x="-586" y="-436"/>
      <point x="-540" y="-409" type="curve"/>
      <point x="-562" y="-313" type="line"/>
      <point x="-590" y="-333"/>
      <point x="-623" y="-343"/>
      <point x="-663" y="-343" type="curve" smooth="yes"/>
      <point x="-718" y="-343"/>
      <point x="-749" y="-318"/>
      <point x="-749" y="-253" type="curve" smooth="yes"/>
      <point x="-749" y="-152"/>
      <point x="-654" y="-63"/>
      <point x="-456" y="0" type="curve"/>
      <point x="-482" y="68" type="line"/>
      <point x="-723" y="6"/>
      <point x="-875" y="-136"/>
      <point x="-875" y="-276" type="curve" smooth="yes"/>
      <point x="-875" y="-388"/>
      <point x="-804" y="-450"/>
    </contour>
  </outline>
</glyph>
<glyph name="_part.tse-cy" format="2">
  <advance width="1156"/>
  <anchor x="476" y="0" name="bottom"/>
  <anchor x="884" y="0" name="descender"/>
  <outline>
    <contour>
      <point x="72" y="0" type="line"/>
      <point x="884" y="0" type="line"/>
      <point x="1084" y="960" type="line"/>
      <point x="972" y="960" type="line"/>
      <point x="792" y="104" type="line"/>
      <point x="204" y="104" type="line"/>
      <point x="384" y="960" type="line"/>
      <point x="272" y="960" type="line"/>
    </contour>
  </outline>
</glyph>
<glyph name="_part.verticalstroke.case" format="2">
  <advance width="1200"/>
  <anchor x="510" y="780" name="_center"/>
  <outline>
    <contour>
      <point x="392" y="460" type="line"/>
      <point x="492" y="460" type="line"/>
      <point x="628" y="1100" type="line"/>
      <point x="528" y="1100" type="line"/>
    </contour>
  </outline>
</glyph>
<glyph name="_part.verticalstroke" format="2">
  <advance width="1200"/>
  <anchor x="510" y="780" name="_center"/>
  <outline>
    <contour>
      <point x="402" y="500" type="line"/>
      <point x="502" y="500" type="line"/>
      <point x="618" y="1060" type="line"/>
      <point x="518" y="1060" type="line"/>
    </contour>
  </outline>
</glyph>
<glyph name="_part.won" format="2">
  <advance width="1296"/>
  <anchor x="844" y="1400" name="top"/>
  <outline>
    <contour>
      <point x="226" y="0" type="line"/>
      <point x="360" y="0" type="line"/>
      <point x="808" y="1218" type="line"/>
      <point x="736" y="0" type="line"/>
      <point x="868" y="0" type="line"/>
      <point x="1412" y="1400" type="line"/>
      <point x="1292" y="1400" type="line"/>
      <point x="846" y="212" type="line"/>
      <point x="916" y="1400" type="line"/>
      <point x="774" y="1400" type="line"/>
      <point x="336" y="204" type="line"/>
      <point x="396" y="1400" type="line"/>
      <point x="278" y="1400" type="line"/>
    </contour>
  </outline>
</glyph>
<glyph name="acutecomb.case" format="2">
  <anchor x="270" y="1398" name="_top"/>
  <outline>
    <contour>
      <point x="246" y="1592" type="line"/>
      <point x="358" y="1592" type="line"/>
      <point x="622" y="1904" type="line"/>
      <point x="498" y="1904" type="line"/>
    </contour>
  </outline>
</glyph>
<glyph name="acutecomb.narrow" format="2">
  <anchor x="177" y="960" name="_top"/>
  <outline>
    <contour>
      <point x="157" y="1170" type="line"/>
      <point x="267" y="1170" type="line"/>
      <point x="509" y="1504" type="line"/>
      <point x="387" y="1504" type="line"/>
    </contour>
  </outline>
</glyph>
<glyph name="aogonek.ss01" format="2">
  <advance width="1261"/>
  <anchor x="527" y="0" name="bottom"/>
  <anchor x="989" y="0" name="ogonek"/>
  <anchor x="679" y="960" name="top"/>
  <outline>
    <contour>
      <point x="750" y="-450" type="curve" smooth="yes"/>
      <point x="806" y="-450"/>
      <point x="859" y="-436"/>
      <point x="905" y="-409" type="curve"/>
      <point x="883" y="-313" type="line"/>
      <point x="855" y="-333"/>
      <point x="822" y="-343"/>
      <point x="782" y="-343" type="curve" smooth="yes"/>
      <point x="727" y="-343"/>
      <point x="696" y="-318"/>
      <point x="696" y="-253" type="curve" smooth="yes"/>
      <point x="696" y="-152"/>
      <point x="791" y="-63"/>
      <point x="989" y="0" type="curve"/>
      <point x="966.5" y="59.0" type="line"/>
      <point x="723.5" y="-1.0"/>
      <point x="570.0" y="-139.5"/>
      <point x="570" y="-276" type="curve" smooth="yes"/>
      <point x="570" y="-388"/>
      <point x="641" y="-450"/>
    </contour>
    <component base="a.ss01"/>
  </outline>
</glyph>
<glyph name="brevecomb.narrow" format="2">
  <anchor x="406" y="960" name="_top"/>
  <anchor x="502" y="1404" name="top"/>
  <outline>
    <contour>
      <point x="474" y="1160" type="curve" smooth="yes"/>
      <point x="638" y="1160"/>
      <point x="776" y="1304"/>
      <point x="798" y="1504" type="curve"/>
      <point x="698" y="1504" type="line"/>
      <point x="684" y="1362"/>
      <point x="604" y="1256"/>
      <point x="488" y="1256" type="curve" smooth="yes"/>
      <point x="372" y="1256"/>
      <point x="308" y="1346"/>
      <point x="330" y="1504" type="curve"/>
      <point x="228" y="1504" type="line"/>
      <point x="204" y="1294"/>
      <point x="302" y="1160"/>
    </contour>
  </outline>
</glyph>
<glyph name="caroncomb.alt_case" format="2">
  <anchor x="65" y="1440" name="_caron"/>
  <outline>
    <contour>
      <point x="119" y="992" type="line"/>
      <point x="205" y="992" type="line"/>
      <point x="353" y="1440" type="line"/>
      <point x="215" y="1440" type="line"/>
    </contour>
  </outline>
</glyph>
<glyph name="caroncomb.case" format="2">
  <anchor x="525" y="1398" name="_top"/>
  <outline>
    <contour>
      <point x="499" y="1592" type="line"/>
      <point x="621" y="1592" type="line"/>
      <point x="959" y="1904" type="line"/>
      <point x="829" y="1904" type="line"/>
      <point x="567" y="1668" type="line"/>
      <point x="425" y="1904" type="line"/>
      <point x="313" y="1904" type="line"/>
    </contour>
  </outline>
</glyph>
<glyph name="circumflexcomb.case" format="2">
  <anchor x="530" y="1398" name="_top"/>
  <anchor x="626" y="1848" name="top"/>
  <anchor x="900" y="1646" name="top_right"/>
  <outline>
    <contour>
      <point x="246" y="1592" type="line"/>
      <point x="380" y="1592" type="line"/>
      <point x="638" y="1828" type="line"/>
      <point x="778" y="1592" type="line"/>
      <point x="890" y="1592" type="line"/>
      <point x="710" y="1904" type="line"/>
      <point x="580" y="1904" type="line"/>
    </contour>
  </outline>
</glyph>
<glyph name="commaturnedabovecomb.case" format="2">
  <anchor x="303" y="1398" name="_top"/>
  <outline>
    <contour>
      <point x="379" y="1660" type="curve" smooth="yes"/>
      <point x="433" y="1660"/>
      <point x="479" y="1698"/>
      <point x="479" y="1748" type="curve" smooth="yes"/>
      <point x="479" y="1798"/>
      <point x="441" y="1830"/>
      <point x="391" y="1830" type="curve"/>
      <point x="401" y="1874"/>
      <point x="483" y="1918"/>
      <point x="573" y="1956" type="curve"/>
      <point x="529" y="2014" type="line"/>
      <point x="407" y="1954"/>
      <point x="283" y="1860"/>
      <point x="283" y="1750" type="curve" smooth="yes"/>
      <point x="283" y="1694"/>
      <point x="321" y="1660"/>
    </contour>
  </outline>
</glyph>
<glyph name="dieresiscomb.case" format="2">
  <anchor x="492" y="1398" name="_top"/>
  <anchor x="554" y="1704" name="top"/>
  <outline>
    <contour>
      <point x="352" y="1584" type="curve" smooth="yes"/>
      <point x="406" y="1584"/>
      <point x="460" y="1630"/>
      <point x="460" y="1682" type="curve" smooth="yes"/>
      <point x="460" y="1730"/>
      <point x="418" y="1766"/>
      <point x="372" y="1766" type="curve" smooth="yes"/>
      <point x="318" y="1766"/>
      <point x="264" y="1720"/>
      <point x="264" y="1668" type="curve" smooth="yes"/>
      <point x="264" y="1624"/>
      <point x="302" y="1584"/>
    </contour>
    <contour>
      <point x="726" y="1584" type="curve" smooth="yes"/>
      <point x="780" y="1584"/>
      <point x="834" y="1630"/>
      <point x="834" y="1682" type="curve" smooth="yes"/>
      <point x="834" y="1728"/>
      <point x="794" y="1766"/>
      <point x="746" y="1766" type="curve" smooth="yes"/>
      <point x="690" y="1766"/>
      <point x="638" y="1720"/>
      <point x="638" y="1668" type="curve" smooth="yes"/>
      <point x="638" y="1624"/>
      <point x="676" y="1584"/>
    </contour>
  </outline>
</glyph>
<glyph name="dieresiscomb.narrow" format="2">
  <anchor x="341" y="960" name="_top"/>
  <anchor x="409" y="1284" name="top"/>
  <outline>
    <contour>
      <point x="259" y="1162" type="curve" smooth="yes"/>
      <point x="313" y="1162"/>
      <point x="367" y="1210"/>
      <point x="367" y="1266" type="curve" smooth="yes"/>
      <point x="367" y="1312"/>
      <point x="331" y="1350"/>
      <point x="283" y="1350" type="curve" smooth="yes"/>
      <point x="229" y="1350"/>
      <point x="175" y="1302"/>
      <point x="175" y="1246" type="curve" smooth="yes"/>
      <point x="175" y="1202"/>
      <point x="211" y="1162"/>
    </contour>
    <contour>
      <point x="523" y="1162" type="curve" smooth="yes"/>
      <point x="577" y="1162"/>
      <point x="631" y="1210"/>
      <point x="631" y="1266" type="curve" smooth="yes"/>
      <point x="631" y="1312"/>
      <point x="595" y="1350"/>
      <point x="547" y="1350" type="curve" smooth="yes"/>
      <point x="493" y="1350"/>
      <point x="439" y="1302"/>
      <point x="439" y="1246" type="curve" smooth="yes"/>
      <point x="439" y="1202"/>
      <point x="475" y="1162"/>
    </contour>
  </outline>
</glyph>
<glyph name="dotaccentcomb.case" format="2">
  <anchor x="304" y="1398" name="_top"/>
  <anchor x="366" y="1704" name="top"/>
  <outline>
    <contour>
      <point x="352" y="1584" type="curve" smooth="yes"/>
      <point x="404" y="1584"/>
      <point x="460" y="1630"/>
      <point x="460" y="1684" type="curve" smooth="yes"/>
      <point x="460" y="1730"/>
      <point x="418" y="1766"/>
      <point x="372" y="1766" type="curve" smooth="yes"/>
      <point x="318" y="1766"/>
      <point x="264" y="1722"/>
      <point x="264" y="1668" type="curve" smooth="yes"/>
      <point x="264" y="1624"/>
      <point x="302" y="1584"/>
    </contour>
  </outline>
</glyph>
<glyph name="g.ss01" format="2">
  <advance width="1259"/>
  <anchor x="657" y="960" name="top"/>
  <outline>
    <contour>
      <point x="445" y="-450" type="curve" smooth="yes"/>
      <point x="751" y="-450"/>
      <point x="929" y="-272"/>
      <point x="997" y="48" type="curve" smooth="yes"/>
      <point x="1191" y="960" type="line"/>
      <point x="1079" y="960" type="line"/>
      <point x="1031" y="724" type="line"/>
      <point x="1055" y="748" type="line"/>
      <point x="989" y="884"/>
      <point x="859" y="990"/>
      <point x="643" y="990" type="curve" smooth="yes"/>
      <point x="331" y="990"/>
      <point x="79" y="730"/>
      <point x="79" y="414" type="curve" smooth="yes"/>
      <point x="79" y="168"/>
      <point x="255" y="-30"/>
      <point x="541" y="-30" type="curve" smooth="yes"/>
      <point x="719" y="-30"/>
      <point x="833" y="52"/>
      <point x="927" y="164" type="curve"/>
      <point x="915" y="190" type="line"/>
      <point x="877" y="6" type="line" smooth="yes"/>
      <point x="831" y="-208"/>
      <point x="679" y="-340"/>
      <point x="449" y="-340" type="curve" smooth="yes"/>
      <point x="341" y="-340"/>
      <point x="223" y="-312"/>
      <point x="111" y="-254" type="curve"/>
      <point x="51" y="-356" type="line"/>
      <point x="175" y="-424"/>
      <point x="317" y="-450"/>
    </contour>
    <contour>
      <point x="549" y="78" type="curve" smooth="yes"/>
      <point x="337" y="78"/>
      <point x="199" y="210"/>
      <point x="199" y="414" type="curve" smooth="yes"/>
      <point x="199" y="666"/>
      <point x="367" y="882"/>
      <point x="629" y="882" type="curve" smooth="yes"/>
      <point x="843" y="882"/>
      <point x="983" y="748"/>
      <point x="983" y="540" type="curve" smooth="yes"/>
      <point x="983" y="280"/>
      <point x="805" y="78"/>
    </contour>
  </outline>
</glyph>
<glyph name="ge-cy.loclBGR" format="2">
  <advance width="934"/>
  <anchor x="354" y="0" name="bottom"/>
  <anchor x="586" y="960" name="top"/>
  <outline>
    <contour>
      <point x="336" y="-30" type="curve" smooth="yes"/>
      <point x="482" y="-30"/>
      <point x="648" y="26"/>
      <point x="756" y="112" type="curve"/>
      <point x="706" y="210" type="line"/>
      <point x="614" y="132"/>
      <point x="484" y="78"/>
      <point x="356" y="78" type="curve" smooth="yes"/>
      <point x="220" y="78"/>
      <point x="144" y="122"/>
      <point x="144" y="218" type="curve" smooth="yes"/>
      <point x="144" y="334"/>
      <point x="292" y="392"/>
      <point x="466" y="444" type="curve" smooth="yes"/>
      <point x="694" y="512"/>
      <point x="894" y="588"/>
      <point x="894" y="766" type="curve" smooth="yes"/>
      <point x="894" y="916"/>
      <point x="762" y="1000"/>
      <point x="574" y="1000" type="curve" smooth="yes"/>
      <point x="446" y="1000"/>
      <point x="320" y="954"/>
      <point x="210" y="866" type="curve"/>
      <point x="252" y="762" type="line"/>
      <point x="334" y="840"/>
      <point x="454" y="892"/>
      <point x="566" y="892" type="curve" smooth="yes"/>
      <point x="692" y="892"/>
      <point x="774" y="850"/>
      <point x="774" y="756" type="curve" smooth="yes"/>
      <point x="774" y="646"/>
      <point x="634" y="588"/>
      <point x="454" y="536" type="curve" smooth="yes"/>
      <point x="210" y="465"/>
      <point x="24" y="388"/>
      <point x="24" y="198" type="curve" smooth="yes"/>
      <point x="24" y="48"/>
      <point x="162" y="-30"/>
    </contour>
  </outline>
</glyph>
<glyph name="hardsign-cy.loclBGR" format="2">
  <advance width="1289"/>
  <outline>
    <contour>
      <point x="730" y="-20" type="curve" smooth="yes"/>
      <point x="978" y="-20"/>
      <point x="1178" y="146"/>
      <point x="1178" y="372" type="curve" smooth="yes"/>
      <point x="1178" y="556"/>
      <point x="1028" y="704"/>
      <point x="796" y="704" type="curve" smooth="yes"/>
      <point x="674" y="704"/>
      <point x="552" y="656"/>
      <point x="486" y="580" type="curve"/>
      <point x="490" y="554" type="line"/>
      <point x="576" y="960" type="line"/>
      <point x="464" y="960" type="line"/>
      <point x="342" y="384" type="line" smooth="yes"/>
      <point x="292" y="148"/>
      <point x="468" y="-20"/>
    </contour>
    <contour>
      <point x="736" y="82" type="curve" smooth="yes"/>
      <point x="568" y="82"/>
      <point x="450" y="172"/>
      <point x="450" y="312" type="curve" smooth="yes"/>
      <point x="450" y="472"/>
      <point x="578" y="600"/>
      <point x="768" y="600" type="curve" smooth="yes"/>
      <point x="940" y="600"/>
      <point x="1058" y="510"/>
      <point x="1058" y="368" type="curve" smooth="yes"/>
      <point x="1058" y="212"/>
      <point x="928" y="82"/>
    </contour>
    <contour>
      <point x="122" y="856" type="line"/>
      <point x="462" y="856" type="line"/>
      <point x="576" y="960" type="line"/>
      <point x="144" y="960" type="line"/>
    </contour>
  </outline>
</glyph>
<glyph name="hookabovecomb.case" format="2">
  <anchor x="441" y="1398" name="_top"/>
  <outline>
    <contour>
      <point x="435" y="1592" type="curve"/>
      <point x="527" y="1592" type="line"/>
      <point x="503" y="1666"/>
      <point x="519" y="1688"/>
      <point x="621" y="1722" type="curve" smooth="yes"/>
      <point x="713" y="1752"/>
      <point x="789" y="1790"/>
      <point x="789" y="1876" type="curve" smooth="yes"/>
      <point x="789" y="1976"/>
      <point x="659" y="2024"/>
      <point x="523" y="2024" type="curve" smooth="yes"/>
      <point x="455" y="2024"/>
      <point x="389" y="2012"/>
      <point x="331" y="1992" type="curve"/>
      <point x="349" y="1914" type="line"/>
      <point x="399" y="1932"/>
      <point x="459" y="1942"/>
      <point x="525" y="1942" type="curve" smooth="yes"/>
      <point x="617" y="1942"/>
      <point x="689" y="1910"/>
      <point x="689" y="1856" type="curve" smooth="yes"/>
      <point x="689" y="1804"/>
      <point x="637" y="1790"/>
      <point x="555" y="1768" type="curve" smooth="yes"/>
      <point x="441" y="1738"/>
      <point x="395" y="1688"/>
    </contour>
  </outline>
</glyph>
<glyph name="hookabovecomb.narrow" format="2">
  <anchor x="316" y="960" name="_top"/>
  <outline>
    <contour>
      <point x="316" y="1170" type="curve"/>
      <point x="402" y="1170" type="line"/>
      <point x="386" y="1252"/>
      <point x="404" y="1276"/>
      <point x="486" y="1310" type="curve" smooth="yes"/>
      <point x="566" y="1344"/>
      <point x="638" y="1384"/>
      <point x="638" y="1484" type="curve" smooth="yes"/>
      <point x="638" y="1584"/>
      <point x="532" y="1634"/>
      <point x="416" y="1634" type="curve" smooth="yes"/>
      <point x="360" y="1634"/>
      <point x="298" y="1622"/>
      <point x="248" y="1600" type="curve"/>
      <point x="260" y="1520" type="line"/>
      <point x="302" y="1540"/>
      <point x="358" y="1550"/>
      <point x="406" y="1550" type="curve" smooth="yes"/>
      <point x="484" y="1550"/>
      <point x="538" y="1514"/>
      <point x="538" y="1460" type="curve" smooth="yes"/>
      <point x="538" y="1396"/>
      <point x="488" y="1382"/>
      <point x="424" y="1360" type="curve" smooth="yes"/>
      <point x="324" y="1326"/>
      <point x="288" y="1268"/>
    </contour>
  </outline>
</glyph>
<glyph name="horncomb.alt" format="2">
  <anchor x="156" y="960" name="_horn"/>
  <outline>
    <contour>
      <point x="174" y="802" type="curve" smooth="yes"/>
      <point x="308" y="802"/>
      <point x="382" y="904"/>
      <point x="382" y="1012" type="curve" smooth="yes"/>
      <point x="382" y="1062"/>
      <point x="366" y="1116"/>
      <point x="332" y="1168" type="curve"/>
      <point x="234" y="1128" type="line"/>
      <point x="260" y="1080"/>
      <point x="274" y="1038"/>
      <point x="274" y="1002" type="curve" smooth="yes"/>
      <point x="274" y="940"/>
      <point x="238" y="886"/>
      <point x="168" y="886" type="curve" smooth="yes"/>
      <point x="150" y="886"/>
      <point x="126" y="890"/>
      <point x="100" y="898" type="curve"/>
      <point x="82" y="820" type="line"/>
      <point x="118" y="810"/>
      <point x="144" y="802"/>
    </contour>
  </outline>
</glyph>
<glyph name="horncomb.alt_case" format="2">
  <anchor x="315" y="1400" name="_horn"/>
  <outline>
    <contour>
      <point x="393" y="1186" type="curve" smooth="yes"/>
      <point x="527" y="1186"/>
      <point x="611" y="1290"/>
      <point x="611" y="1404" type="curve" smooth="yes"/>
      <point x="611" y="1458"/>
      <point x="595" y="1520"/>
      <point x="561" y="1574" type="curve"/>
      <point x="463" y="1538" type="line"/>
      <point x="493" y="1482"/>
      <point x="503" y="1434"/>
      <point x="503" y="1398" type="curve" smooth="yes"/>
      <point x="503" y="1324"/>
      <point x="465" y="1270"/>
      <point x="383" y="1270" type="curve" smooth="yes"/>
      <point x="335" y="1270"/>
      <point x="257" y="1304"/>
      <point x="193" y="1342" type="curve"/>
      <point x="179" y="1270" type="line"/>
      <point x="245" y="1228"/>
      <point x="323" y="1186"/>
    </contour>
  </outline>
</glyph>
<glyph name="horncomb.case" format="2">
  <anchor x="654" y="1400" name="_horn"/>
  <outline>
    <contour>
      <point x="746" y="1220" type="curve" smooth="yes"/>
      <point x="892" y="1213"/>
      <point x="974" y="1308"/>
      <point x="974" y="1416" type="curve" smooth="yes"/>
      <point x="974" y="1468"/>
      <point x="956" y="1522"/>
      <point x="916" y="1574" type="curve"/>
      <point x="816" y="1536" type="line"/>
      <point x="854" y="1482"/>
      <point x="866" y="1436"/>
      <point x="866" y="1404" type="curve" smooth="yes"/>
      <point x="866" y="1342"/>
      <point x="826" y="1298"/>
      <point x="740" y="1302" type="curve" smooth="yes"/>
      <point x="640" y="1307"/>
      <point x="458" y="1430"/>
      <point x="212" y="1430" type="curve"/>
      <point x="198" y="1364" type="line"/>
      <point x="460" y="1352"/>
      <point x="614" y="1226"/>
    </contour>
  </outline>
</glyph>
<glyph name="macroncomb.case" format="2">
  <anchor x="504" y="1398" name="_top"/>
  <outline>
    <contour>
      <point x="258" y="1648" type="line"/>
      <point x="854" y="1648" type="line"/>
      <point x="876" y="1748" type="line"/>
      <point x="280" y="1748" type="line"/>
    </contour>
  </outline>
</glyph>
<glyph name="macroncomb.wide" format="2">
  <anchor x="526" y="960" name="_top"/>
  <outline>
    <contour>
      <point x="172" y="1230" type="line"/>
      <point x="998" y="1230" type="line"/>
      <point x="1018" y="1334" type="line"/>
      <point x="192" y="1334" type="line"/>
    </contour>
  </outline>
</glyph>
<glyph name="one.dnom" format="2">
  <advance width="632"/>
  <outline>
    <contour>
      <point x="250" y="0" type="line"/>
      <point x="350" y="0" type="line"/>
      <point x="548" y="930" type="line"/>
      <point x="538" y="930" type="line"/>
      <point x="114" y="788" type="line"/>
      <point x="140" y="710" type="line"/>
      <point x="422" y="800" type="line"/>
    </contour>
  </outline>
</glyph>
<glyph name="one.numr" format="2">
  <advance width="632"/>
  <outline>
    <contour>
      <point x="354" y="490" type="line"/>
      <point x="454" y="490" type="line"/>
      <point x="652" y="1420" type="line"/>
      <point x="642" y="1420" type="line"/>
      <point x="218" y="1278" type="line"/>
      <point x="244" y="1200" type="line"/>
      <point x="526" y="1290" type="line"/>
    </contour>
  </outline>
</glyph>
<glyph name="one.tf" format="2">
  <advance width="1296"/>
  <outline>
    <contour>
      <point x="124" y="0" type="line"/>
      <point x="1068" y="0" type="line"/>
      <point x="1090" y="108" type="line"/>
      <point x="696" y="108" type="line"/>
      <point x="978" y="1430" type="line"/>
      <point x="968" y="1430" type="line"/>
      <point x="368" y="1221" type="line"/>
      <point x="398" y="1134" type="line"/>
      <point x="836" y="1284" type="line"/>
      <point x="584" y="108" type="line"/>
      <point x="146" y="108" type="line"/>
    </contour>
  </outline>
</glyph>
<glyph name="strokeshortcomb.case" format="2">
  <anchor x="478" y="742" name="_bar"/>
  <outline>
    <contour>
      <point x="56" y="698" type="line"/>
      <point x="880" y="698" type="line"/>
      <point x="900" y="786" type="line"/>
      <point x="76" y="786" type="line"/>
    </contour>
  </outline>
</glyph>
<glyph name="three.numr" format="2">
  <advance width="816"/>
  <outline>
    <contour>
      <point x="406" y="470" type="curve" smooth="yes"/>
      <point x="606" y="470"/>
      <point x="766" y="600"/>
      <point x="766" y="784" type="curve" smooth="yes"/>
      <point x="766" y="936"/>
      <point x="630" y="1014"/>
      <point x="466" y="1022" type="curve"/>
      <point x="840" y="1316" type="line"/>
      <point x="856" y="1400" type="line"/>
      <point x="280" y="1400" type="line"/>
      <point x="260" y="1308" type="line"/>
      <point x="698" y="1308" type="line"/>
      <point x="316" y="1006" type="line"/>
      <point x="332" y="942" type="line"/>
      <point x="356" y="946"/>
      <point x="386" y="948"/>
      <point x="412" y="948" type="curve" smooth="yes"/>
      <point x="564" y="948"/>
      <point x="658" y="884"/>
      <point x="658" y="780" type="curve" smooth="yes"/>
      <point x="658" y="650"/>
      <point x="554" y="566"/>
      <point x="410" y="566" type="curve" smooth="yes"/>
      <point x="312" y="566"/>
      <point x="216" y="604"/>
      <point x="160" y="656" type="curve"/>
      <point x="106" y="572" type="line"/>
      <point x="163" y="514"/>
      <point x="290" y="470"/>
    </contour>
  </outline>
</glyph>
<glyph name="tildecomb.case" format="2">
  <anchor x="563" y="1398" name="_top"/>
  <anchor x="639" y="1758" name="top"/>
  <outline>
    <contour>
      <point x="337" y="1632" type="line"/>
      <point x="377" y="1704"/>
      <point x="421" y="1748"/>
      <point x="485" y="1748" type="curve" smooth="yes"/>
      <point x="579" y="1748"/>
      <point x="661" y="1652"/>
      <point x="783" y="1652" type="curve" smooth="yes"/>
      <point x="869" y="1652"/>
      <point x="953" y="1712"/>
      <point x="1011" y="1816" type="curve"/>
      <point x="939" y="1864" type="line"/>
      <point x="903" y="1792"/>
      <point x="849" y="1748"/>
      <point x="791" y="1748" type="curve" smooth="yes"/>
      <point x="697" y="1748"/>
      <point x="615" y="1846"/>
      <point x="493" y="1846" type="curve" smooth="yes"/>
      <point x="403" y="1846"/>
      <point x="321" y="1782"/>
      <point x="265" y="1678" type="curve"/>
    </contour>
  </outline>
</glyph>
<glyph name="tildecomb.narrow" format="2">
  <anchor x="414" y="960" name="_top"/>
  <anchor x="496" y="1344" name="top"/>
  <outline>
    <contour>
      <point x="236" y="1216" type="line"/>
      <point x="276" y="1298"/>
      <point x="316" y="1340"/>
      <point x="364" y="1340" type="curve" smooth="yes"/>
      <point x="442" y="1340"/>
      <point x="506" y="1236"/>
      <point x="608" y="1236" type="curve" smooth="yes"/>
      <point x="680" y="1236"/>
      <point x="756" y="1298"/>
      <point x="808" y="1410" type="curve"/>
      <point x="750" y="1460" type="line"/>
      <point x="716" y="1386"/>
      <point x="674" y="1334"/>
      <point x="622" y="1334" type="curve" smooth="yes"/>
      <point x="544" y="1334"/>
      <point x="480" y="1440"/>
      <point x="378" y="1440" type="curve" smooth="yes"/>
      <point x="298" y="1440"/>
      <point x="226" y="1364"/>
      <point x="176" y="1262" type="curve"/>
    </contour>
  </outline>
</glyph>
<glyph name="two.numr" format="2">
  <advance width="828"/>
  <outline>
    <contour>
      <point x="112" y="490" type="line"/>
      <point x="726" y="490" type="line"/>
      <point x="744" y="582" type="line"/>
      <point x="272" y="582" type="line"/>
      <point x="490" y="740" type="line" smooth="yes"/>
      <point x="692" y="886"/>
      <point x="838" y="1014"/>
      <point x="838" y="1182" type="curve" smooth="yes"/>
      <point x="838" y="1328"/>
      <point x="720" y="1420"/>
      <point x="538" y="1420" type="curve" smooth="yes"/>
      <point x="448" y="1420"/>
      <point x="361" y="1396"/>
      <point x="291" y="1347" type="curve"/>
      <point x="318" y="1268" type="line"/>
      <point x="372" y="1308"/>
      <point x="448" y="1326"/>
      <point x="516" y="1326" type="curve" smooth="yes"/>
      <point x="652" y="1326"/>
      <point x="734" y="1268"/>
      <point x="734" y="1170" type="curve" smooth="yes"/>
      <point x="734" y="1024"/>
      <point x="572" y="900"/>
      <point x="386" y="762" type="curve" smooth="yes"/>
      <point x="130" y="572" type="line"/>
    </contour>
  </outline>
</glyph>
<glyph name="ze-cy.loclBGR" format="2">
  <advance width="1001"/>
  <anchor x="264" y="-420" name="bottom"/>
  <anchor x="544" y="960" name="top"/>
  <outline>
    <contour>
      <point x="302" y="-448" type="curve" smooth="yes"/>
      <point x="586" y="-448"/>
      <point x="788" y="-280"/>
      <point x="788" y="-46" type="curve" smooth="yes"/>
      <point x="788" y="108"/>
      <point x="702" y="240"/>
      <point x="560" y="290" type="curve"/>
      <point x="710" y="316"/>
      <point x="896" y="462"/>
      <point x="896" y="664" type="curve" smooth="yes"/>
      <point x="896" y="854"/>
      <point x="734" y="988"/>
      <point x="516" y="988" type="curve" smooth="yes"/>
      <point x="362" y="988"/>
      <point x="228" y="944"/>
      <point x="120" y="862" type="curve"/>
      <point x="164" y="772" type="line"/>
      <point x="256" y="842"/>
      <point x="368" y="880"/>
      <point x="498" y="880" type="curve" smooth="yes"/>
      <point x="660" y="880"/>
      <point x="776" y="794"/>
      <point x="776" y="638" type="curve" smooth="yes"/>
      <point x="776" y="456"/>
      <point x="616" y="346"/>
      <point x="390" y="346" type="curve" smooth="yes"/>
      <point x="192" y="346" type="line"/>
      <point x="170" y="242" type="line"/>
      <point x="356" y="242" type="line" smooth="yes"/>
      <point x="540" y="242"/>
      <point x="666" y="124"/>
      <point x="666" y="-46" type="curve" smooth="yes"/>
      <point x="666" y="-228"/>
      <point x="536" y="-340"/>
      <point x="322" y="-340" type="curve" smooth="yes"/>
      <point x="174" y="-340"/>
      <point x="34" y="-280"/>
      <point x="-50" y="-180" type="curve"/>
      <point x="-130" y="-270" type="line"/>
      <point x="-32" y="-374"/>
      <point x="146" y="-448"/>
    </contour>
  </outline>
</glyph>
